# MagicaVoxel @ Ephtracy

# material
mtllib FinishLine.mtl
usemtl palette

# normals
vn -1 0 0
vn 1 0 0
vn 0 0 1
vn 0 0 -1
vn 0 -1 0
vn 0 1 0

# texcoords
vt 0.958984 0.5
vt 0.994141 0.5

# verts
v -20 0 20
v -20 0 -0
v -20 0 -20
v -20 1 20
v -20 1 -0
v -20 1 -20
v 20 0 20
v 20 0 -0
v 20 0 -20
v 20 1 20
v 20 1 -0
v 20 1 -20
v -20 0 20
v -20 1 20
v 0 0 20
v 0 1 20
v 20 0 20
v 20 1 20
v -20 0 -20
v -20 1 -20
v 0 0 -20
v 0 1 -20
v 20 0 -20
v 20 1 -20
v -20 0 20
v 0 0 20
v 20 0 20
v -20 0 -0
v 0 0 -0
v 20 0 -0
v -20 0 -20
v 0 0 -20
v 20 0 -20
v -20 1 20
v 0 1 20
v 20 1 20
v -20 1 -0
v 0 1 -0
v 20 1 -0
v -20 1 -20
v 0 1 -20
v 20 1 -20

# faces
f 4/1/1 2/1/1 1/1/1
f 5/2/1 3/2/1 2/2/1
f 5/1/1 2/1/1 4/1/1
f 6/2/1 3/2/1 5/2/1
f 7/2/2 8/2/2 10/2/2
f 8/1/2 9/1/2 11/1/2
f 10/2/2 8/2/2 11/2/2
f 11/1/2 9/1/2 12/1/2
f 15/1/3 14/1/3 13/1/3
f 16/1/3 14/1/3 15/1/3
f 17/2/3 16/2/3 15/2/3
f 18/2/3 16/2/3 17/2/3
f 19/2/4 20/2/4 21/2/4
f 21/2/4 20/2/4 22/2/4
f 21/1/4 22/1/4 23/1/4
f 23/1/4 22/1/4 24/1/4
f 28/1/5 26/1/5 25/1/5
f 29/2/5 27/2/5 26/2/5
f 29/1/5 26/1/5 28/1/5
f 30/2/5 27/2/5 29/2/5
f 31/2/5 29/2/5 28/2/5
f 32/1/5 30/1/5 29/1/5
f 32/2/5 29/2/5 31/2/5
f 33/1/5 30/1/5 32/1/5
f 34/1/6 35/1/6 37/1/6
f 35/2/6 36/2/6 38/2/6
f 37/1/6 35/1/6 38/1/6
f 38/2/6 36/2/6 39/2/6
f 37/2/6 38/2/6 40/2/6
f 38/1/6 39/1/6 41/1/6
f 40/2/6 38/2/6 41/2/6
f 41/1/6 39/1/6 42/1/6
