# MagicaVoxel @ Ephtracy

# group
o 

# material
mtllib Anfiteatro aberto.mtl
usemtl palette

# normals
vn -1 0 0
vn 1 0 0
vn 0 0 1
vn 0 0 -1
vn 0 -1 0
vn 0 1 0

# texcoords
vt 0.923828 0.5
vt 0.927734 0.5
vt 0.978516 0.5
vt 0.986328 0.5

# verts
v 0 2 -0.2
v 0 2 -0.3
v 0 2 -1
v 0 2 -3.6
v 0 2.5 -1
v 0 2.5 -3.6
v 0 2.6 -0.2
v 0 2.6 -0.3
v 0 2.6 -1
v 0 2.6 -3.5
v 0 2.6 -3.6
v 0 3.3 -3.5
v 0 3.3 -3.6
v 0.1 2 -0.3
v 0.1 2 -1
v 0.1 2.1 -0.3
v 0.1 2.1 -1
v 0.2 2.1 -0.3
v 0.2 2.1 -1
v 0.2 2.2 -0.3
v 0.2 2.2 -1
v 0.3 2.2 -0.3
v 0.3 2.2 -1
v 0.3 2.3 -0.3
v 0.3 2.3 -1
v 0.4 2.3 -0.3
v 0.4 2.3 -1
v 0.4 2.4 -0.3
v 0.4 2.4 -1
v 0.5 2.4 -0.3
v 0.5 2.4 -1
v 0.5 2.5 -0.3
v 0.5 2.5 -1
v 0.6 2.5 -0.3
v 0.6 2.5 -1
v 0.6 2.6 -0.3
v 0.6 2.6 -1
v 1 2 -0.1
v 1 2 -0.2
v 1 2.6 -0.1
v 1 2.6 -0.2
v 2.4 2 0
v 2.4 2 -0.1
v 2.4 2.6 0
v 2.4 2.6 -0.1
v 4.4 2 0
v 4.4 2 -0.1
v 4.4 2.6 0
v 4.4 2.6 -0.1
v 5.9 2 -0.1
v 5.9 2 -0.2
v 5.9 2.5 -0.3
v 5.9 2.5 -1.2
v 5.9 2.6 -0.1
v 5.9 2.6 -0.2
v 5.9 2.6 -0.3
v 5.9 2.6 -1.2
v 6 2.4 -0.3
v 6 2.4 -1.2
v 6 2.5 -0.3
v 6 2.5 -1.2
v 6.1 2.3 -0.3
v 6.1 2.3 -1.2
v 6.1 2.4 -0.3
v 6.1 2.4 -1.2
v 6.2 2.2 -0.3
v 6.2 2.2 -1.2
v 6.2 2.3 -0.3
v 6.2 2.3 -1.2
v 6.3 2.1 -0.3
v 6.3 2.1 -1.2
v 6.3 2.2 -0.3
v 6.3 2.2 -1.2
v 6.4 2 -0.3
v 6.4 2 -1.2
v 6.4 2.1 -0.3
v 6.4 2.1 -1.2
v 6.5 2 -0.2
v 6.5 2 -0.3
v 6.5 2 -1.2
v 6.5 2 -3.6
v 6.5 2.5 -1.2
v 6.5 2.5 -3.6
v 6.5 2.6 -0.2
v 6.5 2.6 -0.3
v 6.5 2.6 -1.2
v 6.5 2.6 -3.5
v 6.5 2.6 -3.6
v 6.5 3.3 -3.5
v 6.5 3.3 -3.6
v 2.4 2 0
v 2.4 2.6 0
v 4.4 2 0
v 4.4 2.6 0
v 1 2 -0.1
v 1 2.6 -0.1
v 2.4 2 -0.1
v 2.4 2.6 -0.1
v 4.4 2 -0.1
v 4.4 2.6 -0.1
v 5.9 2 -0.1
v 5.9 2.6 -0.1
v 0 2 -0.2
v 0 2.6 -0.2
v 1 2 -0.2
v 1 2.6 -0.2
v 5.9 2 -0.2
v 5.9 2.6 -0.2
v 6.5 2 -0.2
v 6.5 2.6 -0.2
v 0 2 -1
v 0 2.5 -1
v 0 2.6 -1
v 0.1 2 -1
v 0.1 2.1 -1
v 0.2 2.1 -1
v 0.2 2.2 -1
v 0.3 2.2 -1
v 0.3 2.3 -1
v 0.4 2.3 -1
v 0.4 2.4 -1
v 0.5 2.4 -1
v 0.5 2.5 -1
v 0.6 2.5 -1
v 0.6 2.6 -1
v 5.9 2.5 -1.2
v 5.9 2.6 -1.2
v 6 2.4 -1.2
v 6 2.5 -1.2
v 6.1 2.3 -1.2
v 6.1 2.4 -1.2
v 6.2 2.2 -1.2
v 6.2 2.3 -1.2
v 6.3 2.1 -1.2
v 6.3 2.2 -1.2
v 6.4 2 -1.2
v 6.4 2.1 -1.2
v 6.5 2 -1.2
v 6.5 2.5 -1.2
v 6.5 2.6 -1.2
v 0 2.6 -3.5
v 0 3.3 -3.5
v 6.5 2.6 -3.5
v 6.5 3.3 -3.5
v 0 2 -0.3
v 0 2.6 -0.3
v 0.1 2 -0.3
v 0.1 2.1 -0.3
v 0.2 2.1 -0.3
v 0.2 2.2 -0.3
v 0.3 2.2 -0.3
v 0.3 2.3 -0.3
v 0.4 2.3 -0.3
v 0.4 2.4 -0.3
v 0.5 2.4 -0.3
v 0.5 2.5 -0.3
v 0.6 2.5 -0.3
v 0.6 2.6 -0.3
v 5.9 2.5 -0.3
v 5.9 2.6 -0.3
v 6 2.4 -0.3
v 6 2.5 -0.3
v 6.1 2.3 -0.3
v 6.1 2.4 -0.3
v 6.2 2.2 -0.3
v 6.2 2.3 -0.3
v 6.3 2.1 -0.3
v 6.3 2.2 -0.3
v 6.4 2 -0.3
v 6.4 2.1 -0.3
v 6.5 2 -0.3
v 6.5 2.6 -0.3
v 0 2 -3.6
v 0 2.5 -3.6
v 0 2.6 -3.6
v 0 3.3 -3.6
v 6.5 2 -3.6
v 6.5 2.5 -3.6
v 6.5 2.6 -3.6
v 6.5 3.3 -3.6
v 2.4 2 0
v 4.4 2 0
v 1 2 -0.1
v 2.4 2 -0.1
v 4.4 2 -0.1
v 5.9 2 -0.1
v 0 2 -0.2
v 1 2 -0.2
v 5.9 2 -0.2
v 6.5 2 -0.2
v 0 2 -0.3
v 0.1 2 -0.3
v 0.6 2 -0.3
v 5.9 2 -0.3
v 6.4 2 -0.3
v 6.5 2 -0.3
v 0 2 -1
v 0.1 2 -1
v 6.4 2 -1.2
v 6.5 2 -1.2
v 0.6 2 -3.5
v 5.9 2 -3.5
v 0 2 -3.6
v 6.5 2 -3.6
v 0.1 2.1 -0.3
v 0.2 2.1 -0.3
v 6.3 2.1 -0.3
v 6.4 2.1 -0.3
v 0.1 2.1 -1
v 0.2 2.1 -1
v 6.3 2.1 -1.2
v 6.4 2.1 -1.2
v 0.2 2.2 -0.3
v 0.3 2.2 -0.3
v 6.2 2.2 -0.3
v 6.3 2.2 -0.3
v 0.2 2.2 -1
v 0.3 2.2 -1
v 6.2 2.2 -1.2
v 6.3 2.2 -1.2
v 0.3 2.3 -0.3
v 0.4 2.3 -0.3
v 6.1 2.3 -0.3
v 6.2 2.3 -0.3
v 0.3 2.3 -1
v 0.4 2.3 -1
v 6.1 2.3 -1.2
v 6.2 2.3 -1.2
v 0.4 2.4 -0.3
v 0.5 2.4 -0.3
v 6 2.4 -0.3
v 6.1 2.4 -0.3
v 0.4 2.4 -1
v 0.5 2.4 -1
v 6 2.4 -1.2
v 6.1 2.4 -1.2
v 0.5 2.5 -0.3
v 0.6 2.5 -0.3
v 5.9 2.5 -0.3
v 6 2.5 -0.3
v 0.5 2.5 -1
v 0.6 2.5 -1
v 5.9 2.5 -1.2
v 6 2.5 -1.2
v 2.4 2.6 0
v 4.4 2.6 0
v 1 2.6 -0.1
v 2.4 2.6 -0.1
v 2.5 2.6 -0.1
v 4.3 2.6 -0.1
v 4.4 2.6 -0.1
v 5.9 2.6 -0.1
v 0 2.6 -0.2
v 1 2.6 -0.2
v 1.1 2.6 -0.2
v 2.5 2.6 -0.2
v 4.3 2.6 -0.2
v 5.8 2.6 -0.2
v 5.9 2.6 -0.2
v 6.5 2.6 -0.2
v 0 2.6 -0.3
v 0.6 2.6 -0.3
v 1.1 2.6 -0.3
v 5.8 2.6 -0.3
v 5.9 2.6 -0.3
v 6.5 2.6 -0.3
v 0 2.6 -1
v 0.6 2.6 -1
v 5.9 2.6 -1.2
v 6.5 2.6 -1.2
v 0 2.6 -3.5
v 6.5 2.6 -3.5
v 0 3.3 -3.5
v 6.5 3.3 -3.5
v 0 3.3 -3.6
v 6.5 3.3 -3.6

# faces
f 5/2/1 4/2/1 3/2/1
f 6/2/1 4/2/1 5/2/1
f 7/1/1 2/1/1 1/1/1
f 8/1/1 2/1/1 7/1/1
f 9/4/1 6/4/1 5/4/1
f 10/4/1 6/4/1 9/4/1
f 11/4/1 6/4/1 10/4/1
f 12/3/1 11/3/1 10/3/1
f 13/3/1 11/3/1 12/3/1
f 16/2/1 15/2/1 14/2/1
f 17/2/1 15/2/1 16/2/1
f 20/2/1 19/2/1 18/2/1
f 21/2/1 19/2/1 20/2/1
f 24/2/1 23/2/1 22/2/1
f 25/2/1 23/2/1 24/2/1
f 28/2/1 27/2/1 26/2/1
f 29/2/1 27/2/1 28/2/1
f 32/2/1 31/2/1 30/2/1
f 33/2/1 31/2/1 32/2/1
f 36/4/1 35/4/1 34/4/1
f 37/4/1 35/4/1 36/4/1
f 40/1/1 39/1/1 38/1/1
f 41/1/1 39/1/1 40/1/1
f 44/1/1 43/1/1 42/1/1
f 45/1/1 43/1/1 44/1/1
f 46/1/2 47/1/2 48/1/2
f 48/1/2 47/1/2 49/1/2
f 50/1/2 51/1/2 54/1/2
f 54/1/2 51/1/2 55/1/2
f 52/4/2 53/4/2 56/4/2
f 56/4/2 53/4/2 57/4/2
f 58/2/2 59/2/2 60/2/2
f 60/2/2 59/2/2 61/2/2
f 62/2/2 63/2/2 64/2/2
f 64/2/2 63/2/2 65/2/2
f 66/2/2 67/2/2 68/2/2
f 68/2/2 67/2/2 69/2/2
f 70/2/2 71/2/2 72/2/2
f 72/2/2 71/2/2 73/2/2
f 74/2/2 75/2/2 76/2/2
f 76/2/2 75/2/2 77/2/2
f 80/2/2 81/2/2 82/2/2
f 82/2/2 81/2/2 83/2/2
f 78/1/2 79/1/2 84/1/2
f 84/1/2 79/1/2 85/1/2
f 82/4/2 83/4/2 86/4/2
f 86/4/2 83/4/2 87/4/2
f 87/4/2 83/4/2 88/4/2
f 87/3/2 88/3/2 89/3/2
f 89/3/2 88/3/2 90/3/2
f 93/1/3 92/1/3 91/1/3
f 94/1/3 92/1/3 93/1/3
f 97/1/3 96/1/3 95/1/3
f 98/1/3 96/1/3 97/1/3
f 101/1/3 100/1/3 99/1/3
f 102/1/3 100/1/3 101/1/3
f 105/1/3 104/1/3 103/1/3
f 106/1/3 104/1/3 105/1/3
f 109/1/3 108/1/3 107/1/3
f 110/1/3 108/1/3 109/1/3
f 114/2/3 112/2/3 111/2/3
f 115/2/3 112/2/3 114/2/3
f 116/2/3 112/2/3 115/2/3
f 117/2/3 112/2/3 116/2/3
f 118/2/3 112/2/3 117/2/3
f 119/2/3 112/2/3 118/2/3
f 120/2/3 112/2/3 119/2/3
f 121/2/3 112/2/3 120/2/3
f 122/2/3 112/2/3 121/2/3
f 123/4/3 113/4/3 112/4/3
f 123/2/3 112/2/3 122/2/3
f 124/4/3 113/4/3 123/4/3
f 125/4/3 113/4/3 124/4/3
f 129/4/3 127/4/3 126/4/3
f 131/2/3 129/2/3 128/2/3
f 133/2/3 131/2/3 130/2/3
f 135/2/3 133/2/3 132/2/3
f 137/2/3 135/2/3 134/2/3
f 138/2/3 137/2/3 136/2/3
f 139/4/3 127/4/3 129/4/3
f 139/2/3 137/2/3 138/2/3
f 139/2/3 129/2/3 131/2/3
f 139/2/3 135/2/3 137/2/3
f 139/2/3 131/2/3 133/2/3
f 139/2/3 133/2/3 135/2/3
f 140/4/3 127/4/3 139/4/3
f 143/3/3 142/3/3 141/3/3
f 144/3/3 142/3/3 143/3/3
f 145/1/4 146/1/4 147/1/4
f 147/1/4 146/1/4 148/1/4
f 148/1/4 146/1/4 149/1/4
f 149/1/4 146/1/4 150/1/4
f 150/1/4 146/1/4 151/1/4
f 151/1/4 146/1/4 152/1/4
f 152/1/4 146/1/4 153/1/4
f 153/1/4 146/1/4 154/1/4
f 154/1/4 146/1/4 155/1/4
f 155/1/4 146/1/4 156/1/4
f 156/1/4 146/1/4 157/1/4
f 157/1/4 146/1/4 158/1/4
f 159/1/4 160/1/4 162/1/4
f 161/1/4 162/1/4 164/1/4
f 163/1/4 164/1/4 166/1/4
f 165/1/4 166/1/4 168/1/4
f 167/1/4 168/1/4 170/1/4
f 169/1/4 170/1/4 171/1/4
f 162/1/4 160/1/4 172/1/4
f 171/1/4 170/1/4 172/1/4
f 164/1/4 162/1/4 172/1/4
f 170/1/4 168/1/4 172/1/4
f 166/1/4 164/1/4 172/1/4
f 168/1/4 166/1/4 172/1/4
f 173/2/4 174/2/4 177/2/4
f 174/4/4 175/4/4 178/4/4
f 177/2/4 174/2/4 178/2/4
f 175/3/4 176/3/4 179/3/4
f 178/4/4 175/4/4 179/4/4
f 179/3/4 176/3/4 180/3/4
f 184/1/5 182/1/5 181/1/5
f 185/1/5 182/1/5 184/1/5
f 188/1/5 184/1/5 183/1/5
f 188/1/5 186/1/5 185/1/5
f 188/1/5 185/1/5 184/1/5
f 189/1/5 186/1/5 188/1/5
f 191/1/5 188/1/5 187/1/5
f 191/1/5 190/1/5 189/1/5
f 191/1/5 189/1/5 188/1/5
f 192/1/5 190/1/5 191/1/5
f 193/1/5 190/1/5 192/1/5
f 194/1/5 190/1/5 193/1/5
f 195/1/5 190/1/5 194/1/5
f 196/1/5 190/1/5 195/1/5
f 198/2/5 193/2/5 192/2/5
f 199/2/5 195/2/5 194/2/5
f 201/2/5 198/2/5 197/2/5
f 201/4/5 194/4/5 193/4/5
f 201/2/5 193/2/5 198/2/5
f 202/2/5 200/2/5 199/2/5
f 202/4/5 194/4/5 201/4/5
f 202/2/5 199/2/5 194/2/5
f 203/2/5 201/2/5 197/2/5
f 203/2/5 202/2/5 201/2/5
f 204/2/5 200/2/5 202/2/5
f 204/2/5 202/2/5 203/2/5
f 205/2/6 206/2/6 209/2/6
f 209/2/6 206/2/6 210/2/6
f 207/2/6 208/2/6 211/2/6
f 211/2/6 208/2/6 212/2/6
f 213/2/6 214/2/6 217/2/6
f 217/2/6 214/2/6 218/2/6
f 215/2/6 216/2/6 219/2/6
f 219/2/6 216/2/6 220/2/6
f 221/2/6 222/2/6 225/2/6
f 225/2/6 222/2/6 226/2/6
f 223/2/6 224/2/6 227/2/6
f 227/2/6 224/2/6 228/2/6
f 229/2/6 230/2/6 233/2/6
f 233/2/6 230/2/6 234/2/6
f 231/2/6 232/2/6 235/2/6
f 235/2/6 232/2/6 236/2/6
f 237/2/6 238/2/6 241/2/6
f 241/2/6 238/2/6 242/2/6
f 239/2/6 240/2/6 243/2/6
f 243/2/6 240/2/6 244/2/6
f 245/1/6 246/1/6 248/1/6
f 248/1/6 246/1/6 249/1/6
f 249/1/6 246/1/6 250/1/6
f 250/1/6 246/1/6 251/1/6
f 247/1/6 248/1/6 254/1/6
f 248/1/6 249/1/6 254/1/6
f 254/1/6 249/1/6 255/1/6
f 249/4/6 250/4/6 256/4/6
f 255/1/6 249/1/6 256/1/6
f 251/1/6 252/1/6 257/1/6
f 256/4/6 250/4/6 257/4/6
f 250/1/6 251/1/6 257/1/6
f 257/1/6 252/1/6 258/1/6
f 258/1/6 252/1/6 259/1/6
f 253/1/6 254/1/6 261/1/6
f 254/1/6 255/1/6 261/1/6
f 261/1/6 255/1/6 262/1/6
f 255/4/6 256/4/6 263/4/6
f 262/1/6 255/1/6 263/1/6
f 256/4/6 257/4/6 263/4/6
f 257/4/6 258/4/6 263/4/6
f 259/1/6 260/1/6 264/1/6
f 263/4/6 258/4/6 264/4/6
f 258/1/6 259/1/6 264/1/6
f 264/1/6 260/1/6 265/1/6
f 265/1/6 260/1/6 266/1/6
f 262/4/6 263/4/6 268/4/6
f 264/4/6 265/4/6 268/4/6
f 263/4/6 264/4/6 268/4/6
f 268/4/6 265/4/6 269/4/6
f 267/4/6 268/4/6 269/4/6
f 267/4/6 269/4/6 271/4/6
f 269/4/6 270/4/6 271/4/6
f 271/4/6 270/4/6 272/4/6
f 273/3/6 274/3/6 275/3/6
f 275/3/6 274/3/6 276/3/6
