# MagicaVoxel @ Ephtracy

# group
o 

# material
mtllib Banco B.mtl
usemtl palette

# normals
vn -1 0 0
vn 1 0 0
vn 0 0 1
vn 0 0 -1
vn 0 -1 0
vn 0 1 0

# texcoords
vt 0.310547 0.5
vt 0.896484 0.5
vt 0.974609 0.5

# verts
v 2.2 2 -5.2
v 2.2 2 -11.9
v 2.2 2.1 -5.2
v 2.2 2.1 -11.9
v 2.3 2.1 -5.5
v 2.3 2.1 -6.7
v 2.3 4.5 -5.5
v 2.3 4.5 -6.7
v 7.1 2.1 -5.3
v 7.1 2.1 -6.9
v 7.1 3.9 -5.5
v 7.1 3.9 -6.7
v 7.1 4.1 -5.5
v 7.1 4.1 -6.7
v 7.1 4.2 -5.3
v 7.1 4.2 -6.9
v 7.3 2.1 -11.5
v 7.3 2.1 -11.8
v 7.3 3.9 -6.9
v 7.3 3.9 -11.5
v 7.3 4.1 -6.9
v 7.3 4.1 -11.5
v 7.3 4.4 -11.5
v 7.3 4.4 -11.8
v 8.4 4 -5.4
v 8.4 4 -6.8
v 8.4 4.2 -5.4
v 8.4 4.2 -6.8
v 2.5 2.1 -5.5
v 2.5 2.1 -6.7
v 2.5 3.9 -5.5
v 2.5 3.9 -6.7
v 2.5 4.1 -5.5
v 2.5 4.1 -6.7
v 2.5 4.5 -5.5
v 2.5 4.5 -6.7
v 7.2 4 -5.4
v 7.2 4 -6.8
v 7.2 4.2 -5.4
v 7.2 4.2 -6.8
v 8.3 2.1 -11.5
v 8.3 2.1 -11.8
v 8.3 3.9 -6.9
v 8.3 3.9 -11.5
v 8.3 4.1 -6.9
v 8.3 4.1 -11.5
v 8.3 4.4 -11.5
v 8.3 4.4 -11.8
v 8.5 2.1 -5.3
v 8.5 2.1 -6.9
v 8.5 4.2 -5.3
v 8.5 4.2 -6.9
v 8.7 2 -5.2
v 8.7 2 -11.9
v 8.7 2.1 -5.2
v 8.7 2.1 -11.9
v 2.2 2 -5.2
v 2.2 2.1 -5.2
v 8.7 2 -5.2
v 8.7 2.1 -5.2
v 7.1 2.1 -5.3
v 7.1 4.2 -5.3
v 8.5 2.1 -5.3
v 8.5 4.2 -5.3
v 2.3 2.1 -5.5
v 2.3 4.5 -5.5
v 2.5 2.1 -5.5
v 2.5 3.9 -5.5
v 2.5 4.1 -5.5
v 2.5 4.5 -5.5
v 7.1 3.9 -5.5
v 7.1 4.1 -5.5
v 7.2 4 -6.8
v 7.2 4.2 -6.8
v 8.4 4 -6.8
v 8.4 4.2 -6.8
v 7.3 2.1 -11.5
v 7.3 3.9 -11.5
v 7.3 4.1 -11.5
v 7.3 4.4 -11.5
v 8.3 2.1 -11.5
v 8.3 3.9 -11.5
v 8.3 4.1 -11.5
v 8.3 4.4 -11.5
v 7.2 4 -5.4
v 7.2 4.2 -5.4
v 8.4 4 -5.4
v 8.4 4.2 -5.4
v 2.3 2.1 -6.7
v 2.3 4.5 -6.7
v 2.5 2.1 -6.7
v 2.5 3.9 -6.7
v 2.5 4.1 -6.7
v 2.5 4.5 -6.7
v 7.1 3.9 -6.7
v 7.1 4.1 -6.7
v 7.1 2.1 -6.9
v 7.1 4.2 -6.9
v 7.3 3.9 -6.9
v 7.3 4.1 -6.9
v 8.3 3.9 -6.9
v 8.3 4.1 -6.9
v 8.5 2.1 -6.9
v 8.5 4.2 -6.9
v 7.3 2.1 -11.8
v 7.3 4.4 -11.8
v 8.3 2.1 -11.8
v 8.3 4.4 -11.8
v 2.2 2 -11.9
v 2.2 2.1 -11.9
v 8.7 2 -11.9
v 8.7 2.1 -11.9
v 2.2 2 -5.2
v 8.7 2 -5.2
v 7.1 2 -5.3
v 8.5 2 -5.3
v 2.3 2 -5.5
v 2.5 2 -5.5
v 2.3 2 -6.7
v 2.5 2 -6.7
v 7.1 2 -6.9
v 8.5 2 -6.9
v 7.3 2 -11.5
v 8.3 2 -11.5
v 7.3 2 -11.8
v 8.3 2 -11.8
v 2.2 2 -11.9
v 8.7 2 -11.9
v 2.5 3.9 -5.5
v 7.1 3.9 -5.5
v 2.5 3.9 -6.7
v 7.1 3.9 -6.7
v 7.3 3.9 -6.9
v 8.3 3.9 -6.9
v 7.3 3.9 -11.5
v 8.3 3.9 -11.5
v 2.2 2.1 -5.2
v 8.7 2.1 -5.2
v 7.1 2.1 -5.3
v 8.5 2.1 -5.3
v 2.3 2.1 -5.5
v 2.5 2.1 -5.5
v 2.3 2.1 -6.7
v 2.5 2.1 -6.7
v 7.1 2.1 -6.9
v 8.5 2.1 -6.9
v 7.3 2.1 -11.5
v 8.3 2.1 -11.5
v 7.3 2.1 -11.8
v 8.3 2.1 -11.8
v 2.2 2.1 -11.9
v 8.7 2.1 -11.9
v 7.2 4 -5.4
v 8.4 4 -5.4
v 7.2 4 -6.8
v 8.4 4 -6.8
v 2.5 4.1 -5.5
v 7.1 4.1 -5.5
v 2.5 4.1 -6.7
v 7.1 4.1 -6.7
v 7.3 4.1 -6.9
v 8.3 4.1 -6.9
v 7.3 4.1 -11.5
v 8.3 4.1 -11.5
v 7.1 4.2 -5.3
v 8.5 4.2 -5.3
v 7.2 4.2 -5.4
v 8.4 4.2 -5.4
v 7.2 4.2 -6.8
v 8.4 4.2 -6.8
v 7.1 4.2 -6.9
v 8.5 4.2 -6.9
v 7.3 4.4 -11.5
v 8.3 4.4 -11.5
v 7.3 4.4 -11.8
v 8.3 4.4 -11.8
v 2.3 4.5 -5.5
v 2.5 4.5 -5.5
v 2.3 4.5 -6.7
v 2.5 4.5 -6.7

# faces
f 3/2/1 2/2/1 1/2/1
f 4/2/1 2/2/1 3/2/1
f 7/3/1 6/3/1 5/3/1
f 8/3/1 6/3/1 7/3/1
f 11/3/1 10/3/1 9/3/1
f 12/3/1 10/3/1 11/3/1
f 13/3/1 11/3/1 9/3/1
f 14/3/1 10/3/1 12/3/1
f 15/3/1 13/3/1 9/3/1
f 15/3/1 14/3/1 13/3/1
f 16/3/1 10/3/1 14/3/1
f 16/3/1 14/3/1 15/3/1
f 20/3/1 18/3/1 17/3/1
f 21/3/1 20/3/1 19/3/1
f 22/3/1 18/3/1 20/3/1
f 22/3/1 20/3/1 21/3/1
f 23/3/1 18/3/1 22/3/1
f 24/3/1 18/3/1 23/3/1
f 27/3/1 26/3/1 25/3/1
f 28/3/1 26/3/1 27/3/1
f 29/3/2 30/3/2 31/3/2
f 31/3/2 30/3/2 32/3/2
f 33/3/2 34/3/2 35/3/2
f 35/3/2 34/3/2 36/3/2
f 37/3/2 38/3/2 39/3/2
f 39/3/2 38/3/2 40/3/2
f 41/3/2 42/3/2 44/3/2
f 43/3/2 44/3/2 45/3/2
f 44/3/2 42/3/2 46/3/2
f 45/3/2 44/3/2 46/3/2
f 46/3/2 42/3/2 47/3/2
f 47/3/2 42/3/2 48/3/2
f 49/3/2 50/3/2 51/3/2
f 51/3/2 50/3/2 52/3/2
f 53/2/2 54/2/2 55/2/2
f 55/2/2 54/2/2 56/2/2
f 59/2/3 58/2/3 57/2/3
f 60/2/3 58/2/3 59/2/3
f 63/3/3 62/3/3 61/3/3
f 64/3/3 62/3/3 63/3/3
f 67/3/3 66/3/3 65/3/3
f 68/3/3 66/3/3 67/3/3
f 69/3/3 66/3/3 68/3/3
f 70/3/3 66/3/3 69/3/3
f 71/3/3 69/3/3 68/3/3
f 72/3/3 69/3/3 71/3/3
f 75/3/3 74/3/3 73/3/3
f 76/3/3 74/3/3 75/3/3
f 81/3/3 78/3/3 77/3/3
f 82/3/3 78/3/3 81/3/3
f 83/3/3 80/3/3 79/3/3
f 84/3/3 80/3/3 83/3/3
f 85/3/4 86/3/4 87/3/4
f 87/3/4 86/3/4 88/3/4
f 89/3/4 90/3/4 91/3/4
f 91/3/4 90/3/4 92/3/4
f 92/3/4 90/3/4 93/3/4
f 93/3/4 90/3/4 94/3/4
f 92/3/4 93/3/4 95/3/4
f 95/3/4 93/3/4 96/3/4
f 97/3/4 98/3/4 99/3/4
f 99/3/4 98/3/4 100/3/4
f 97/3/4 99/3/4 101/3/4
f 100/3/4 98/3/4 102/3/4
f 97/3/4 101/3/4 103/3/4
f 101/3/4 102/3/4 103/3/4
f 102/3/4 98/3/4 104/3/4
f 103/3/4 102/3/4 104/3/4
f 105/3/4 106/3/4 107/3/4
f 107/3/4 106/3/4 108/3/4
f 109/2/4 110/2/4 111/2/4
f 111/2/4 110/2/4 112/2/4
f 115/2/5 114/2/5 113/2/5
f 116/2/5 114/2/5 115/2/5
f 117/2/5 115/2/5 113/2/5
f 118/2/5 115/2/5 117/2/5
f 119/2/5 117/2/5 113/2/5
f 119/3/5 118/3/5 117/3/5
f 120/2/5 115/2/5 118/2/5
f 120/3/5 118/3/5 119/3/5
f 121/3/5 116/3/5 115/3/5
f 121/2/5 115/2/5 120/2/5
f 121/2/5 120/2/5 119/2/5
f 122/2/5 114/2/5 116/2/5
f 122/3/5 116/3/5 121/3/5
f 123/2/5 122/2/5 121/2/5
f 124/2/5 122/2/5 123/2/5
f 125/2/5 123/2/5 121/2/5
f 125/3/5 124/3/5 123/3/5
f 126/2/5 122/2/5 124/2/5
f 126/3/5 124/3/5 125/3/5
f 127/2/5 121/2/5 119/2/5
f 127/2/5 119/2/5 113/2/5
f 127/2/5 126/2/5 125/2/5
f 127/2/5 125/2/5 121/2/5
f 128/2/5 122/2/5 126/2/5
f 128/2/5 126/2/5 127/2/5
f 128/2/5 114/2/5 122/2/5
f 131/3/5 130/3/5 129/3/5
f 132/3/5 130/3/5 131/3/5
f 135/3/5 134/3/5 133/3/5
f 136/3/5 134/3/5 135/3/5
f 137/2/6 138/2/6 139/2/6
f 139/2/6 138/2/6 140/2/6
f 137/2/6 139/2/6 141/2/6
f 141/2/6 139/2/6 142/2/6
f 137/2/6 141/2/6 143/2/6
f 142/2/6 139/2/6 144/2/6
f 144/2/6 139/2/6 145/2/6
f 143/2/6 144/2/6 145/2/6
f 140/2/6 138/2/6 146/2/6
f 145/2/6 146/2/6 147/2/6
f 147/2/6 146/2/6 148/2/6
f 145/2/6 147/2/6 149/2/6
f 148/2/6 146/2/6 150/2/6
f 143/2/6 145/2/6 151/2/6
f 149/2/6 150/2/6 151/2/6
f 137/2/6 143/2/6 151/2/6
f 145/2/6 149/2/6 151/2/6
f 150/2/6 146/2/6 152/2/6
f 151/2/6 150/2/6 152/2/6
f 146/2/6 138/2/6 152/2/6
f 153/1/6 154/1/6 155/1/6
f 155/1/6 154/1/6 156/1/6
f 157/3/6 158/3/6 159/3/6
f 159/3/6 158/3/6 160/3/6
f 161/3/6 162/3/6 163/3/6
f 163/3/6 162/3/6 164/3/6
f 165/3/6 166/3/6 167/3/6
f 167/3/6 166/3/6 168/3/6
f 165/3/6 167/3/6 169/3/6
f 168/3/6 166/3/6 170/3/6
f 165/3/6 169/3/6 171/3/6
f 169/3/6 170/3/6 171/3/6
f 170/3/6 166/3/6 172/3/6
f 171/3/6 170/3/6 172/3/6
f 173/3/6 174/3/6 175/3/6
f 175/3/6 174/3/6 176/3/6
f 177/3/6 178/3/6 179/3/6
f 179/3/6 178/3/6 180/3/6
