# MagicaVoxel @ Ephtracy

# group
o 

# material
mtllib Cadeiras.mtl
usemtl palette

# normals
vn -1 0 0
vn 1 0 0
vn 0 0 1
vn 0 0 -1
vn 0 -1 0
vn 0 1 0

# texcoords
vt 0.927734 0.5
vt 0.982422 0.5

# verts
v 0 2 0
v 0 2 -0.4
v 0 2.2 0
v 0 2.2 -0.4
v 0 2.3 -0.1
v 0 2.3 -0.4
v 0 2.5 0
v 0 2.5 -0.1
v 0.4 2.2 0
v 0.4 2.2 -0.4
v 0.4 2.3 -0.1
v 0.4 2.3 -0.4
v 0.4 2.5 0
v 0.4 2.5 -0.1
v 0.8 2.2 0
v 0.8 2.2 -0.4
v 0.8 2.3 -0.1
v 0.8 2.3 -0.4
v 0.8 2.5 0
v 0.8 2.5 -0.1
v 1.2 2.2 0
v 1.2 2.2 -0.4
v 1.2 2.3 -0.1
v 1.2 2.3 -0.4
v 1.2 2.5 0
v 1.2 2.5 -0.1
v 1.6 2.2 0
v 1.6 2.2 -0.4
v 1.6 2.3 -0.1
v 1.6 2.3 -0.4
v 1.6 2.5 0
v 1.6 2.5 -0.1
v 2 2.2 0
v 2 2.2 -0.4
v 2 2.3 -0.1
v 2 2.3 -0.4
v 2 2.5 0
v 2 2.5 -0.1
v 2.4 2.2 0
v 2.4 2.2 -0.4
v 2.4 2.3 -0.1
v 2.4 2.3 -0.4
v 2.4 2.5 0
v 2.4 2.5 -0.1
v 2.8 2.2 0
v 2.8 2.2 -0.4
v 2.8 2.3 -0.1
v 2.8 2.3 -0.4
v 2.8 2.5 0
v 2.8 2.5 -0.1
v 2.9 2 0
v 2.9 2 -0.4
v 2.9 2.1 0
v 2.9 2.1 -0.4
v 3.2 2.2 0
v 3.2 2.2 -0.4
v 3.2 2.3 -0.1
v 3.2 2.3 -0.4
v 3.2 2.5 0
v 3.2 2.5 -0.1
v 3.6 2.2 0
v 3.6 2.2 -0.4
v 3.6 2.3 -0.1
v 3.6 2.3 -0.4
v 3.6 2.5 0
v 3.6 2.5 -0.1
v 4 2.2 0
v 4 2.2 -0.4
v 4 2.3 -0.1
v 4 2.3 -0.4
v 4 2.5 0
v 4 2.5 -0.1
v 4.4 2.2 0
v 4.4 2.2 -0.4
v 4.4 2.3 -0.1
v 4.4 2.3 -0.4
v 4.4 2.5 0
v 4.4 2.5 -0.1
v 4.8 2.2 0
v 4.8 2.2 -0.4
v 4.8 2.3 -0.1
v 4.8 2.3 -0.4
v 4.8 2.5 0
v 4.8 2.5 -0.1
v 5.2 2.2 0
v 5.2 2.2 -0.4
v 5.2 2.3 -0.1
v 5.2 2.3 -0.4
v 5.2 2.5 0
v 5.2 2.5 -0.1
v 5.6 2.2 0
v 5.6 2.2 -0.4
v 5.6 2.3 -0.1
v 5.6 2.3 -0.4
v 5.6 2.5 0
v 5.6 2.5 -0.1
v 5.8 2 0
v 5.8 2 -0.4
v 5.8 2.1 0
v 5.8 2.1 -0.4
v 0.1 2 0
v 0.1 2 -0.4
v 0.1 2.1 0
v 0.1 2.1 -0.4
v 0.3 2.2 0
v 0.3 2.2 -0.4
v 0.3 2.3 -0.1
v 0.3 2.3 -0.4
v 0.3 2.5 0
v 0.3 2.5 -0.1
v 0.7 2.2 0
v 0.7 2.2 -0.4
v 0.7 2.3 -0.1
v 0.7 2.3 -0.4
v 0.7 2.5 0
v 0.7 2.5 -0.1
v 1.1 2.2 0
v 1.1 2.2 -0.4
v 1.1 2.3 -0.1
v 1.1 2.3 -0.4
v 1.1 2.5 0
v 1.1 2.5 -0.1
v 1.5 2.2 0
v 1.5 2.2 -0.4
v 1.5 2.3 -0.1
v 1.5 2.3 -0.4
v 1.5 2.5 0
v 1.5 2.5 -0.1
v 1.9 2.2 0
v 1.9 2.2 -0.4
v 1.9 2.3 -0.1
v 1.9 2.3 -0.4
v 1.9 2.5 0
v 1.9 2.5 -0.1
v 2.3 2.2 0
v 2.3 2.2 -0.4
v 2.3 2.3 -0.1
v 2.3 2.3 -0.4
v 2.3 2.5 0
v 2.3 2.5 -0.1
v 2.7 2.2 0
v 2.7 2.2 -0.4
v 2.7 2.3 -0.1
v 2.7 2.3 -0.4
v 2.7 2.5 0
v 2.7 2.5 -0.1
v 3 2 0
v 3 2 -0.4
v 3 2.1 0
v 3 2.1 -0.4
v 3.1 2.2 0
v 3.1 2.2 -0.4
v 3.1 2.3 -0.1
v 3.1 2.3 -0.4
v 3.1 2.5 0
v 3.1 2.5 -0.1
v 3.5 2.2 0
v 3.5 2.2 -0.4
v 3.5 2.3 -0.1
v 3.5 2.3 -0.4
v 3.5 2.5 0
v 3.5 2.5 -0.1
v 3.9 2.2 0
v 3.9 2.2 -0.4
v 3.9 2.3 -0.1
v 3.9 2.3 -0.4
v 3.9 2.5 0
v 3.9 2.5 -0.1
v 4.3 2.2 0
v 4.3 2.2 -0.4
v 4.3 2.3 -0.1
v 4.3 2.3 -0.4
v 4.3 2.5 0
v 4.3 2.5 -0.1
v 4.7 2.2 0
v 4.7 2.2 -0.4
v 4.7 2.3 -0.1
v 4.7 2.3 -0.4
v 4.7 2.5 0
v 4.7 2.5 -0.1
v 5.1 2.2 0
v 5.1 2.2 -0.4
v 5.1 2.3 -0.1
v 5.1 2.3 -0.4
v 5.1 2.5 0
v 5.1 2.5 -0.1
v 5.5 2.2 0
v 5.5 2.2 -0.4
v 5.5 2.3 -0.1
v 5.5 2.3 -0.4
v 5.5 2.5 0
v 5.5 2.5 -0.1
v 5.9 2 0
v 5.9 2 -0.4
v 5.9 2.2 0
v 5.9 2.2 -0.4
v 5.9 2.3 -0.1
v 5.9 2.3 -0.4
v 5.9 2.5 0
v 5.9 2.5 -0.1
v 0 2 0
v 0 2.2 0
v 0 2.5 0
v 0.1 2 0
v 0.1 2.1 0
v 0.3 2.2 0
v 0.3 2.5 0
v 0.4 2.2 0
v 0.4 2.5 0
v 0.7 2.2 0
v 0.7 2.5 0
v 0.8 2.2 0
v 0.8 2.5 0
v 1.1 2.2 0
v 1.1 2.5 0
v 1.2 2.2 0
v 1.2 2.5 0
v 1.5 2.2 0
v 1.5 2.5 0
v 1.6 2.2 0
v 1.6 2.5 0
v 1.9 2.2 0
v 1.9 2.5 0
v 2 2.2 0
v 2 2.5 0
v 2.3 2.2 0
v 2.3 2.5 0
v 2.4 2.2 0
v 2.4 2.5 0
v 2.7 2.2 0
v 2.7 2.5 0
v 2.8 2.2 0
v 2.8 2.5 0
v 2.9 2 0
v 2.9 2.1 0
v 3 2 0
v 3 2.1 0
v 3.1 2.2 0
v 3.1 2.5 0
v 3.2 2.2 0
v 3.2 2.5 0
v 3.5 2.2 0
v 3.5 2.5 0
v 3.6 2.2 0
v 3.6 2.5 0
v 3.9 2.2 0
v 3.9 2.5 0
v 4 2.2 0
v 4 2.5 0
v 4.3 2.2 0
v 4.3 2.5 0
v 4.4 2.2 0
v 4.4 2.5 0
v 4.7 2.2 0
v 4.7 2.5 0
v 4.8 2.2 0
v 4.8 2.5 0
v 5.1 2.2 0
v 5.1 2.5 0
v 5.2 2.2 0
v 5.2 2.5 0
v 5.5 2.2 0
v 5.5 2.5 0
v 5.6 2.2 0
v 5.6 2.5 0
v 5.8 2 0
v 5.8 2.1 0
v 5.9 2 0
v 5.9 2.2 0
v 5.9 2.5 0
v 0 2.3 -0.1
v 0 2.5 -0.1
v 0.3 2.3 -0.1
v 0.3 2.5 -0.1
v 0.4 2.3 -0.1
v 0.4 2.5 -0.1
v 0.7 2.3 -0.1
v 0.7 2.5 -0.1
v 0.8 2.3 -0.1
v 0.8 2.5 -0.1
v 1.1 2.3 -0.1
v 1.1 2.5 -0.1
v 1.2 2.3 -0.1
v 1.2 2.5 -0.1
v 1.5 2.3 -0.1
v 1.5 2.5 -0.1
v 1.6 2.3 -0.1
v 1.6 2.5 -0.1
v 1.9 2.3 -0.1
v 1.9 2.5 -0.1
v 2 2.3 -0.1
v 2 2.5 -0.1
v 2.3 2.3 -0.1
v 2.3 2.5 -0.1
v 2.4 2.3 -0.1
v 2.4 2.5 -0.1
v 2.7 2.3 -0.1
v 2.7 2.5 -0.1
v 2.8 2.3 -0.1
v 2.8 2.5 -0.1
v 3.1 2.3 -0.1
v 3.1 2.5 -0.1
v 3.2 2.3 -0.1
v 3.2 2.5 -0.1
v 3.5 2.3 -0.1
v 3.5 2.5 -0.1
v 3.6 2.3 -0.1
v 3.6 2.5 -0.1
v 3.9 2.3 -0.1
v 3.9 2.5 -0.1
v 4 2.3 -0.1
v 4 2.5 -0.1
v 4.3 2.3 -0.1
v 4.3 2.5 -0.1
v 4.4 2.3 -0.1
v 4.4 2.5 -0.1
v 4.7 2.3 -0.1
v 4.7 2.5 -0.1
v 4.8 2.3 -0.1
v 4.8 2.5 -0.1
v 5.1 2.3 -0.1
v 5.1 2.5 -0.1
v 5.2 2.3 -0.1
v 5.2 2.5 -0.1
v 5.5 2.3 -0.1
v 5.5 2.5 -0.1
v 5.6 2.3 -0.1
v 5.6 2.5 -0.1
v 5.9 2.3 -0.1
v 5.9 2.5 -0.1
v 0 2 -0.4
v 0 2.2 -0.4
v 0 2.3 -0.4
v 0.1 2 -0.4
v 0.1 2.1 -0.4
v 0.3 2.2 -0.4
v 0.3 2.3 -0.4
v 0.4 2.2 -0.4
v 0.4 2.3 -0.4
v 0.7 2.2 -0.4
v 0.7 2.3 -0.4
v 0.8 2.2 -0.4
v 0.8 2.3 -0.4
v 1.1 2.2 -0.4
v 1.1 2.3 -0.4
v 1.2 2.2 -0.4
v 1.2 2.3 -0.4
v 1.5 2.2 -0.4
v 1.5 2.3 -0.4
v 1.6 2.2 -0.4
v 1.6 2.3 -0.4
v 1.9 2.2 -0.4
v 1.9 2.3 -0.4
v 2 2.2 -0.4
v 2 2.3 -0.4
v 2.3 2.2 -0.4
v 2.3 2.3 -0.4
v 2.4 2.2 -0.4
v 2.4 2.3 -0.4
v 2.7 2.2 -0.4
v 2.7 2.3 -0.4
v 2.8 2.2 -0.4
v 2.8 2.3 -0.4
v 2.9 2 -0.4
v 2.9 2.1 -0.4
v 3 2 -0.4
v 3 2.1 -0.4
v 3.1 2.2 -0.4
v 3.1 2.3 -0.4
v 3.2 2.2 -0.4
v 3.2 2.3 -0.4
v 3.5 2.2 -0.4
v 3.5 2.3 -0.4
v 3.6 2.2 -0.4
v 3.6 2.3 -0.4
v 3.9 2.2 -0.4
v 3.9 2.3 -0.4
v 4 2.2 -0.4
v 4 2.3 -0.4
v 4.3 2.2 -0.4
v 4.3 2.3 -0.4
v 4.4 2.2 -0.4
v 4.4 2.3 -0.4
v 4.7 2.2 -0.4
v 4.7 2.3 -0.4
v 4.8 2.2 -0.4
v 4.8 2.3 -0.4
v 5.1 2.2 -0.4
v 5.1 2.3 -0.4
v 5.2 2.2 -0.4
v 5.2 2.3 -0.4
v 5.5 2.2 -0.4
v 5.5 2.3 -0.4
v 5.6 2.2 -0.4
v 5.6 2.3 -0.4
v 5.8 2 -0.4
v 5.8 2.1 -0.4
v 5.9 2 -0.4
v 5.9 2.2 -0.4
v 5.9 2.3 -0.4
v 0 2 0
v 0.1 2 0
v 2.9 2 0
v 3 2 0
v 5.8 2 0
v 5.9 2 0
v 0 2 -0.4
v 0.1 2 -0.4
v 2.9 2 -0.4
v 3 2 -0.4
v 5.8 2 -0.4
v 5.9 2 -0.4
v 0.1 2.1 0
v 2.9 2.1 0
v 3 2.1 0
v 5.8 2.1 0
v 0.1 2.1 -0.4
v 2.9 2.1 -0.4
v 3 2.1 -0.4
v 5.8 2.1 -0.4
v 0.3 2.2 0
v 0.4 2.2 0
v 0.7 2.2 0
v 0.8 2.2 0
v 1.1 2.2 0
v 1.2 2.2 0
v 1.5 2.2 0
v 1.6 2.2 0
v 1.9 2.2 0
v 2 2.2 0
v 2.3 2.2 0
v 2.4 2.2 0
v 2.7 2.2 0
v 2.8 2.2 0
v 3.1 2.2 0
v 3.2 2.2 0
v 3.5 2.2 0
v 3.6 2.2 0
v 3.9 2.2 0
v 4 2.2 0
v 4.3 2.2 0
v 4.4 2.2 0
v 4.7 2.2 0
v 4.8 2.2 0
v 5.1 2.2 0
v 5.2 2.2 0
v 5.5 2.2 0
v 5.6 2.2 0
v 0.3 2.2 -0.4
v 0.4 2.2 -0.4
v 0.7 2.2 -0.4
v 0.8 2.2 -0.4
v 1.1 2.2 -0.4
v 1.2 2.2 -0.4
v 1.5 2.2 -0.4
v 1.6 2.2 -0.4
v 1.9 2.2 -0.4
v 2 2.2 -0.4
v 2.3 2.2 -0.4
v 2.4 2.2 -0.4
v 2.7 2.2 -0.4
v 2.8 2.2 -0.4
v 3.1 2.2 -0.4
v 3.2 2.2 -0.4
v 3.5 2.2 -0.4
v 3.6 2.2 -0.4
v 3.9 2.2 -0.4
v 4 2.2 -0.4
v 4.3 2.2 -0.4
v 4.4 2.2 -0.4
v 4.7 2.2 -0.4
v 4.8 2.2 -0.4
v 5.1 2.2 -0.4
v 5.2 2.2 -0.4
v 5.5 2.2 -0.4
v 5.6 2.2 -0.4
v 0 2.3 -0.1
v 0.3 2.3 -0.1
v 0.4 2.3 -0.1
v 0.7 2.3 -0.1
v 0.8 2.3 -0.1
v 1.1 2.3 -0.1
v 1.2 2.3 -0.1
v 1.5 2.3 -0.1
v 1.6 2.3 -0.1
v 1.9 2.3 -0.1
v 2 2.3 -0.1
v 2.3 2.3 -0.1
v 2.4 2.3 -0.1
v 2.7 2.3 -0.1
v 2.8 2.3 -0.1
v 3.1 2.3 -0.1
v 3.2 2.3 -0.1
v 3.5 2.3 -0.1
v 3.6 2.3 -0.1
v 3.9 2.3 -0.1
v 4 2.3 -0.1
v 4.3 2.3 -0.1
v 4.4 2.3 -0.1
v 4.7 2.3 -0.1
v 4.8 2.3 -0.1
v 5.1 2.3 -0.1
v 5.2 2.3 -0.1
v 5.5 2.3 -0.1
v 5.6 2.3 -0.1
v 5.9 2.3 -0.1
v 0 2.3 -0.4
v 0.3 2.3 -0.4
v 0.4 2.3 -0.4
v 0.7 2.3 -0.4
v 0.8 2.3 -0.4
v 1.1 2.3 -0.4
v 1.2 2.3 -0.4
v 1.5 2.3 -0.4
v 1.6 2.3 -0.4
v 1.9 2.3 -0.4
v 2 2.3 -0.4
v 2.3 2.3 -0.4
v 2.4 2.3 -0.4
v 2.7 2.3 -0.4
v 2.8 2.3 -0.4
v 3.1 2.3 -0.4
v 3.2 2.3 -0.4
v 3.5 2.3 -0.4
v 3.6 2.3 -0.4
v 3.9 2.3 -0.4
v 4 2.3 -0.4
v 4.3 2.3 -0.4
v 4.4 2.3 -0.4
v 4.7 2.3 -0.4
v 4.8 2.3 -0.4
v 5.1 2.3 -0.4
v 5.2 2.3 -0.4
v 5.5 2.3 -0.4
v 5.6 2.3 -0.4
v 5.9 2.3 -0.4
v 0 2.5 0
v 0.3 2.5 0
v 0.4 2.5 0
v 0.7 2.5 0
v 0.8 2.5 0
v 1.1 2.5 0
v 1.2 2.5 0
v 1.5 2.5 0
v 1.6 2.5 0
v 1.9 2.5 0
v 2 2.5 0
v 2.3 2.5 0
v 2.4 2.5 0
v 2.7 2.5 0
v 2.8 2.5 0
v 3.1 2.5 0
v 3.2 2.5 0
v 3.5 2.5 0
v 3.6 2.5 0
v 3.9 2.5 0
v 4 2.5 0
v 4.3 2.5 0
v 4.4 2.5 0
v 4.7 2.5 0
v 4.8 2.5 0
v 5.1 2.5 0
v 5.2 2.5 0
v 5.5 2.5 0
v 5.6 2.5 0
v 5.9 2.5 0
v 0 2.5 -0.1
v 0.3 2.5 -0.1
v 0.4 2.5 -0.1
v 0.7 2.5 -0.1
v 0.8 2.5 -0.1
v 1.1 2.5 -0.1
v 1.2 2.5 -0.1
v 1.5 2.5 -0.1
v 1.6 2.5 -0.1
v 1.9 2.5 -0.1
v 2 2.5 -0.1
v 2.3 2.5 -0.1
v 2.4 2.5 -0.1
v 2.7 2.5 -0.1
v 2.8 2.5 -0.1
v 3.1 2.5 -0.1
v 3.2 2.5 -0.1
v 3.5 2.5 -0.1
v 3.6 2.5 -0.1
v 3.9 2.5 -0.1
v 4 2.5 -0.1
v 4.3 2.5 -0.1
v 4.4 2.5 -0.1
v 4.7 2.5 -0.1
v 4.8 2.5 -0.1
v 5.1 2.5 -0.1
v 5.2 2.5 -0.1
v 5.5 2.5 -0.1
v 5.6 2.5 -0.1
v 5.9 2.5 -0.1

# faces
f 3/2/1 2/2/1 1/2/1
f 4/2/1 2/2/1 3/2/1
f 5/1/1 4/1/1 3/1/1
f 6/1/1 4/1/1 5/1/1
f 7/1/1 5/1/1 3/1/1
f 8/1/1 5/1/1 7/1/1
f 11/1/1 10/1/1 9/1/1
f 12/1/1 10/1/1 11/1/1
f 13/1/1 11/1/1 9/1/1
f 14/1/1 11/1/1 13/1/1
f 17/1/1 16/1/1 15/1/1
f 18/1/1 16/1/1 17/1/1
f 19/1/1 17/1/1 15/1/1
f 20/1/1 17/1/1 19/1/1
f 23/1/1 22/1/1 21/1/1
f 24/1/1 22/1/1 23/1/1
f 25/1/1 23/1/1 21/1/1
f 26/1/1 23/1/1 25/1/1
f 29/1/1 28/1/1 27/1/1
f 30/1/1 28/1/1 29/1/1
f 31/1/1 29/1/1 27/1/1
f 32/1/1 29/1/1 31/1/1
f 35/1/1 34/1/1 33/1/1
f 36/1/1 34/1/1 35/1/1
f 37/1/1 35/1/1 33/1/1
f 38/1/1 35/1/1 37/1/1
f 41/1/1 40/1/1 39/1/1
f 42/1/1 40/1/1 41/1/1
f 43/1/1 41/1/1 39/1/1
f 44/1/1 41/1/1 43/1/1
f 47/1/1 46/1/1 45/1/1
f 48/1/1 46/1/1 47/1/1
f 49/1/1 47/1/1 45/1/1
f 50/1/1 47/1/1 49/1/1
f 53/2/1 52/2/1 51/2/1
f 54/2/1 52/2/1 53/2/1
f 57/1/1 56/1/1 55/1/1
f 58/1/1 56/1/1 57/1/1
f 59/1/1 57/1/1 55/1/1
f 60/1/1 57/1/1 59/1/1
f 63/1/1 62/1/1 61/1/1
f 64/1/1 62/1/1 63/1/1
f 65/1/1 63/1/1 61/1/1
f 66/1/1 63/1/1 65/1/1
f 69/1/1 68/1/1 67/1/1
f 70/1/1 68/1/1 69/1/1
f 71/1/1 69/1/1 67/1/1
f 72/1/1 69/1/1 71/1/1
f 75/1/1 74/1/1 73/1/1
f 76/1/1 74/1/1 75/1/1
f 77/1/1 75/1/1 73/1/1
f 78/1/1 75/1/1 77/1/1
f 81/1/1 80/1/1 79/1/1
f 82/1/1 80/1/1 81/1/1
f 83/1/1 81/1/1 79/1/1
f 84/1/1 81/1/1 83/1/1
f 87/1/1 86/1/1 85/1/1
f 88/1/1 86/1/1 87/1/1
f 89/1/1 87/1/1 85/1/1
f 90/1/1 87/1/1 89/1/1
f 93/1/1 92/1/1 91/1/1
f 94/1/1 92/1/1 93/1/1
f 95/1/1 93/1/1 91/1/1
f 96/1/1 93/1/1 95/1/1
f 99/2/1 98/2/1 97/2/1
f 100/2/1 98/2/1 99/2/1
f 101/2/2 102/2/2 103/2/2
f 103/2/2 102/2/2 104/2/2
f 105/1/2 106/1/2 107/1/2
f 107/1/2 106/1/2 108/1/2
f 105/1/2 107/1/2 109/1/2
f 109/1/2 107/1/2 110/1/2
f 111/1/2 112/1/2 113/1/2
f 113/1/2 112/1/2 114/1/2
f 111/1/2 113/1/2 115/1/2
f 115/1/2 113/1/2 116/1/2
f 117/1/2 118/1/2 119/1/2
f 119/1/2 118/1/2 120/1/2
f 117/1/2 119/1/2 121/1/2
f 121/1/2 119/1/2 122/1/2
f 123/1/2 124/1/2 125/1/2
f 125/1/2 124/1/2 126/1/2
f 123/1/2 125/1/2 127/1/2
f 127/1/2 125/1/2 128/1/2
f 129/1/2 130/1/2 131/1/2
f 131/1/2 130/1/2 132/1/2
f 129/1/2 131/1/2 133/1/2
f 133/1/2 131/1/2 134/1/2
f 135/1/2 136/1/2 137/1/2
f 137/1/2 136/1/2 138/1/2
f 135/1/2 137/1/2 139/1/2
f 139/1/2 137/1/2 140/1/2
f 141/1/2 142/1/2 143/1/2
f 143/1/2 142/1/2 144/1/2
f 141/1/2 143/1/2 145/1/2
f 145/1/2 143/1/2 146/1/2
f 147/2/2 148/2/2 149/2/2
f 149/2/2 148/2/2 150/2/2
f 151/1/2 152/1/2 153/1/2
f 153/1/2 152/1/2 154/1/2
f 151/1/2 153/1/2 155/1/2
f 155/1/2 153/1/2 156/1/2
f 157/1/2 158/1/2 159/1/2
f 159/1/2 158/1/2 160/1/2
f 157/1/2 159/1/2 161/1/2
f 161/1/2 159/1/2 162/1/2
f 163/1/2 164/1/2 165/1/2
f 165/1/2 164/1/2 166/1/2
f 163/1/2 165/1/2 167/1/2
f 167/1/2 165/1/2 168/1/2
f 169/1/2 170/1/2 171/1/2
f 171/1/2 170/1/2 172/1/2
f 169/1/2 171/1/2 173/1/2
f 173/1/2 171/1/2 174/1/2
f 175/1/2 176/1/2 177/1/2
f 177/1/2 176/1/2 178/1/2
f 175/1/2 177/1/2 179/1/2
f 179/1/2 177/1/2 180/1/2
f 181/1/2 182/1/2 183/1/2
f 183/1/2 182/1/2 184/1/2
f 181/1/2 183/1/2 185/1/2
f 185/1/2 183/1/2 186/1/2
f 187/1/2 188/1/2 189/1/2
f 189/1/2 188/1/2 190/1/2
f 187/1/2 189/1/2 191/1/2
f 191/1/2 189/1/2 192/1/2
f 193/2/2 194/2/2 195/2/2
f 195/2/2 194/2/2 196/2/2
f 195/1/2 196/1/2 197/1/2
f 197/1/2 196/1/2 198/1/2
f 195/1/2 197/1/2 199/1/2
f 199/1/2 197/1/2 200/1/2
f 204/2/3 202/2/3 201/2/3
f 205/2/3 202/2/3 204/2/3
f 206/1/3 203/1/3 202/1/3
f 206/2/3 202/2/3 205/2/3
f 207/1/3 203/1/3 206/1/3
f 208/2/3 206/2/3 205/2/3
f 210/2/3 208/2/3 205/2/3
f 210/1/3 209/1/3 208/1/3
f 211/1/3 209/1/3 210/1/3
f 212/2/3 210/2/3 205/2/3
f 214/2/3 212/2/3 205/2/3
f 214/1/3 213/1/3 212/1/3
f 215/1/3 213/1/3 214/1/3
f 216/2/3 214/2/3 205/2/3
f 218/2/3 216/2/3 205/2/3
f 218/1/3 217/1/3 216/1/3
f 219/1/3 217/1/3 218/1/3
f 220/2/3 218/2/3 205/2/3
f 222/2/3 220/2/3 205/2/3
f 222/1/3 221/1/3 220/1/3
f 223/1/3 221/1/3 222/1/3
f 224/2/3 222/2/3 205/2/3
f 226/2/3 224/2/3 205/2/3
f 226/1/3 225/1/3 224/1/3
f 227/1/3 225/1/3 226/1/3
f 228/2/3 226/2/3 205/2/3
f 230/2/3 228/2/3 205/2/3
f 230/1/3 229/1/3 228/1/3
f 231/1/3 229/1/3 230/1/3
f 232/2/3 230/2/3 205/2/3
f 235/2/3 232/2/3 205/2/3
f 236/2/3 235/2/3 234/2/3
f 237/2/3 232/2/3 235/2/3
f 237/2/3 235/2/3 236/2/3
f 238/1/3 233/1/3 232/1/3
f 238/2/3 232/2/3 237/2/3
f 239/1/3 233/1/3 238/1/3
f 240/2/3 238/2/3 237/2/3
f 242/2/3 240/2/3 237/2/3
f 242/1/3 241/1/3 240/1/3
f 243/1/3 241/1/3 242/1/3
f 244/2/3 242/2/3 237/2/3
f 246/2/3 244/2/3 237/2/3
f 246/1/3 245/1/3 244/1/3
f 247/1/3 245/1/3 246/1/3
f 248/2/3 246/2/3 237/2/3
f 250/2/3 248/2/3 237/2/3
f 250/1/3 249/1/3 248/1/3
f 251/1/3 249/1/3 250/1/3
f 252/2/3 250/2/3 237/2/3
f 254/2/3 252/2/3 237/2/3
f 254/1/3 253/1/3 252/1/3
f 255/1/3 253/1/3 254/1/3
f 256/2/3 254/2/3 237/2/3
f 258/2/3 256/2/3 237/2/3
f 258/1/3 257/1/3 256/1/3
f 259/1/3 257/1/3 258/1/3
f 260/2/3 258/2/3 237/2/3
f 262/2/3 260/2/3 237/2/3
f 262/1/3 261/1/3 260/1/3
f 263/1/3 261/1/3 262/1/3
f 264/2/3 262/2/3 237/2/3
f 267/2/3 264/2/3 237/2/3
f 268/2/3 267/2/3 266/2/3
f 269/1/3 265/1/3 264/1/3
f 269/2/3 267/2/3 268/2/3
f 269/2/3 264/2/3 267/2/3
f 270/1/3 265/1/3 269/1/3
f 271/1/4 272/1/4 273/1/4
f 273/1/4 272/1/4 274/1/4
f 275/1/4 276/1/4 277/1/4
f 277/1/4 276/1/4 278/1/4
f 279/1/4 280/1/4 281/1/4
f 281/1/4 280/1/4 282/1/4
f 283/1/4 284/1/4 285/1/4
f 285/1/4 284/1/4 286/1/4
f 287/1/4 288/1/4 289/1/4
f 289/1/4 288/1/4 290/1/4
f 291/1/4 292/1/4 293/1/4
f 293/1/4 292/1/4 294/1/4
f 295/1/4 296/1/4 297/1/4
f 297/1/4 296/1/4 298/1/4
f 299/1/4 300/1/4 301/1/4
f 301/1/4 300/1/4 302/1/4
f 303/1/4 304/1/4 305/1/4
f 305/1/4 304/1/4 306/1/4
f 307/1/4 308/1/4 309/1/4
f 309/1/4 308/1/4 310/1/4
f 311/1/4 312/1/4 313/1/4
f 313/1/4 312/1/4 314/1/4
f 315/1/4 316/1/4 317/1/4
f 317/1/4 316/1/4 318/1/4
f 319/1/4 320/1/4 321/1/4
f 321/1/4 320/1/4 322/1/4
f 323/1/4 324/1/4 325/1/4
f 325/1/4 324/1/4 326/1/4
f 327/1/4 328/1/4 329/1/4
f 329/1/4 328/1/4 330/1/4
f 331/2/4 332/2/4 334/2/4
f 334/2/4 332/2/4 335/2/4
f 332/1/4 333/1/4 336/1/4
f 335/2/4 332/2/4 336/2/4
f 336/1/4 333/1/4 337/1/4
f 335/2/4 336/2/4 338/2/4
f 335/2/4 338/2/4 340/2/4
f 338/1/4 339/1/4 340/1/4
f 340/1/4 339/1/4 341/1/4
f 335/2/4 340/2/4 342/2/4
f 335/2/4 342/2/4 344/2/4
f 342/1/4 343/1/4 344/1/4
f 344/1/4 343/1/4 345/1/4
f 335/2/4 344/2/4 346/2/4
f 335/2/4 346/2/4 348/2/4
f 346/1/4 347/1/4 348/1/4
f 348/1/4 347/1/4 349/1/4
f 335/2/4 348/2/4 350/2/4
f 335/2/4 350/2/4 352/2/4
f 350/1/4 351/1/4 352/1/4
f 352/1/4 351/1/4 353/1/4
f 335/2/4 352/2/4 354/2/4
f 335/2/4 354/2/4 356/2/4
f 354/1/4 355/1/4 356/1/4
f 356/1/4 355/1/4 357/1/4
f 335/2/4 356/2/4 358/2/4
f 335/2/4 358/2/4 360/2/4
f 358/1/4 359/1/4 360/1/4
f 360/1/4 359/1/4 361/1/4
f 335/2/4 360/2/4 362/2/4
f 335/2/4 362/2/4 365/2/4
f 364/2/4 365/2/4 366/2/4
f 365/2/4 362/2/4 367/2/4
f 366/2/4 365/2/4 367/2/4
f 362/1/4 363/1/4 368/1/4
f 367/2/4 362/2/4 368/2/4
f 368/1/4 363/1/4 369/1/4
f 367/2/4 368/2/4 370/2/4
f 367/2/4 370/2/4 372/2/4
f 370/1/4 371/1/4 372/1/4
f 372/1/4 371/1/4 373/1/4
f 367/2/4 372/2/4 374/2/4
f 367/2/4 374/2/4 376/2/4
f 374/1/4 375/1/4 376/1/4
f 376/1/4 375/1/4 377/1/4
f 367/2/4 376/2/4 378/2/4
f 367/2/4 378/2/4 380/2/4
f 378/1/4 379/1/4 380/1/4
f 380/1/4 379/1/4 381/1/4
f 367/2/4 380/2/4 382/2/4
f 367/2/4 382/2/4 384/2/4
f 382/1/4 383/1/4 384/1/4
f 384/1/4 383/1/4 385/1/4
f 367/2/4 384/2/4 386/2/4
f 367/2/4 386/2/4 388/2/4
f 386/1/4 387/1/4 388/1/4
f 388/1/4 387/1/4 389/1/4
f 367/2/4 388/2/4 390/2/4
f 367/2/4 390/2/4 392/2/4
f 390/1/4 391/1/4 392/1/4
f 392/1/4 391/1/4 393/1/4
f 367/2/4 392/2/4 394/2/4
f 367/2/4 394/2/4 397/2/4
f 396/2/4 397/2/4 398/2/4
f 394/1/4 395/1/4 399/1/4
f 398/2/4 397/2/4 399/2/4
f 397/2/4 394/2/4 399/2/4
f 399/1/4 395/1/4 400/1/4
f 407/2/5 402/2/5 401/2/5
f 408/2/5 402/2/5 407/2/5
f 409/2/5 404/2/5 403/2/5
f 410/2/5 404/2/5 409/2/5
f 411/2/5 406/2/5 405/2/5
f 412/2/5 406/2/5 411/2/5
f 417/2/5 414/2/5 413/2/5
f 418/2/5 414/2/5 417/2/5
f 419/2/5 416/2/5 415/2/5
f 420/2/5 416/2/5 419/2/5
f 421/2/6 422/2/6 449/2/6
f 449/2/6 422/2/6 450/2/6
f 423/2/6 424/2/6 451/2/6
f 451/2/6 424/2/6 452/2/6
f 425/2/6 426/2/6 453/2/6
f 453/2/6 426/2/6 454/2/6
f 427/2/6 428/2/6 455/2/6
f 455/2/6 428/2/6 456/2/6
f 429/2/6 430/2/6 457/2/6
f 457/2/6 430/2/6 458/2/6
f 431/2/6 432/2/6 459/2/6
f 459/2/6 432/2/6 460/2/6
f 433/2/6 434/2/6 461/2/6
f 461/2/6 434/2/6 462/2/6
f 435/2/6 436/2/6 463/2/6
f 463/2/6 436/2/6 464/2/6
f 437/2/6 438/2/6 465/2/6
f 465/2/6 438/2/6 466/2/6
f 439/2/6 440/2/6 467/2/6
f 467/2/6 440/2/6 468/2/6
f 441/2/6 442/2/6 469/2/6
f 469/2/6 442/2/6 470/2/6
f 443/2/6 444/2/6 471/2/6
f 471/2/6 444/2/6 472/2/6
f 445/2/6 446/2/6 473/2/6
f 473/2/6 446/2/6 474/2/6
f 447/2/6 448/2/6 475/2/6
f 475/2/6 448/2/6 476/2/6
f 477/1/6 478/1/6 507/1/6
f 507/1/6 478/1/6 508/1/6
f 479/1/6 480/1/6 509/1/6
f 509/1/6 480/1/6 510/1/6
f 481/1/6 482/1/6 511/1/6
f 511/1/6 482/1/6 512/1/6
f 483/1/6 484/1/6 513/1/6
f 513/1/6 484/1/6 514/1/6
f 485/1/6 486/1/6 515/1/6
f 515/1/6 486/1/6 516/1/6
f 487/1/6 488/1/6 517/1/6
f 517/1/6 488/1/6 518/1/6
f 489/1/6 490/1/6 519/1/6
f 519/1/6 490/1/6 520/1/6
f 491/1/6 492/1/6 521/1/6
f 521/1/6 492/1/6 522/1/6
f 493/1/6 494/1/6 523/1/6
f 523/1/6 494/1/6 524/1/6
f 495/1/6 496/1/6 525/1/6
f 525/1/6 496/1/6 526/1/6
f 497/1/6 498/1/6 527/1/6
f 527/1/6 498/1/6 528/1/6
f 499/1/6 500/1/6 529/1/6
f 529/1/6 500/1/6 530/1/6
f 501/1/6 502/1/6 531/1/6
f 531/1/6 502/1/6 532/1/6
f 503/1/6 504/1/6 533/1/6
f 533/1/6 504/1/6 534/1/6
f 505/1/6 506/1/6 535/1/6
f 535/1/6 506/1/6 536/1/6
f 537/1/6 538/1/6 567/1/6
f 567/1/6 538/1/6 568/1/6
f 539/1/6 540/1/6 569/1/6
f 569/1/6 540/1/6 570/1/6
f 541/1/6 542/1/6 571/1/6
f 571/1/6 542/1/6 572/1/6
f 543/1/6 544/1/6 573/1/6
f 573/1/6 544/1/6 574/1/6
f 545/1/6 546/1/6 575/1/6
f 575/1/6 546/1/6 576/1/6
f 547/1/6 548/1/6 577/1/6
f 577/1/6 548/1/6 578/1/6
f 549/1/6 550/1/6 579/1/6
f 579/1/6 550/1/6 580/1/6
f 551/1/6 552/1/6 581/1/6
f 581/1/6 552/1/6 582/1/6
f 553/1/6 554/1/6 583/1/6
f 583/1/6 554/1/6 584/1/6
f 555/1/6 556/1/6 585/1/6
f 585/1/6 556/1/6 586/1/6
f 557/1/6 558/1/6 587/1/6
f 587/1/6 558/1/6 588/1/6
f 559/1/6 560/1/6 589/1/6
f 589/1/6 560/1/6 590/1/6
f 561/1/6 562/1/6 591/1/6
f 591/1/6 562/1/6 592/1/6
f 563/1/6 564/1/6 593/1/6
f 593/1/6 564/1/6 594/1/6
f 565/1/6 566/1/6 595/1/6
f 595/1/6 566/1/6 596/1/6
