# MagicaVoxel @ Ephtracy

# group
o 

# material
mtllib faccat terreno de tras.mtl
usemtl palette

# normals
vn -1 0 0
vn 1 0 0
vn 0 0 1
vn 0 0 -1
vn 0 -1 0
vn 0 1 0

# texcoords
vt 0.904297 0.5
vt 0.970703 0.5
vt 0.982422 0.5

# verts
v 0 2 -4.3
v 0 2 -6.3
v 0 2.5 -4.3
v 0 2.5 -6.3
v 0.5 2 0
v 0.5 2 -2.7
v 0.5 2.3 0
v 0.5 2.3 -2.7
v 0.9 2.1 -2.4
v 0.9 2.1 -2.6
v 0.9 2.2 -2.4
v 0.9 2.2 -2.6
v 1.8 2.3 -2.6
v 1.8 2.3 -2.7
v 1.8 2.4 -2.6
v 1.8 2.4 -2.7
v 1.9 2.4 -2.6
v 1.9 2.4 -2.7
v 1.9 2.5 -2.6
v 1.9 2.5 -2.7
v 2.1 2 -2.7
v 2.1 2 -4.3
v 2.1 2.1 -0.3
v 2.1 2.1 -2.4
v 2.1 2.2 -0.3
v 2.1 2.2 -2.4
v 2.1 2.2 -2.6
v 2.1 2.3 -2.4
v 2.1 2.3 -2.5
v 2.1 2.4 -2.5
v 2.1 2.4 -2.6
v 2.1 2.5 -2.7
v 2.1 2.5 -4.3
v 2.2 2.2 -0.4
v 2.2 2.2 -2.4
v 2.2 2.3 -0.4
v 2.2 2.3 -2.4
v 2.2 2.3 -2.5
v 2.2 2.3 -6.2
v 2.2 2.3 -6.3
v 2.2 2.4 -2.4
v 2.2 2.4 -2.5
v 2.2 2.4 -6.2
v 2.2 2.4 -6.3
v 2.3 2.4 -6.2
v 2.3 2.4 -6.3
v 2.3 2.5 -6.2
v 2.3 2.5 -6.3
v 2.4 2.3 -1.4
v 2.4 2.3 -2.3
v 2.4 2.3 -2.4
v 2.4 2.3 -5
v 2.4 2.3 -5.2
v 2.4 2.3 -6.2
v 2.4 2.4 -1.4
v 2.4 2.4 -2.3
v 2.4 2.4 -2.4
v 2.4 2.4 -5
v 2.4 2.4 -5.2
v 2.4 2.4 -6.2
v 2.5 2.3 -1.3
v 2.5 2.3 -1.4
v 2.5 2.4 -1.3
v 2.5 2.4 -1.4
v 2.6 2.3 -1.1
v 2.6 2.3 -1.3
v 2.6 2.4 -1.1
v 2.6 2.4 -1.3
v 2.7 2.3 -1
v 2.7 2.3 -1.1
v 2.7 2.4 -1
v 2.7 2.4 -1.1
v 2.8 2.3 -0.8
v 2.8 2.3 -1
v 2.8 2.4 -0.8
v 2.8 2.4 -1
v 2.9 2.3 -0.7
v 2.9 2.3 -0.8
v 2.9 2.4 -0.7
v 2.9 2.4 -0.8
v 3.1 2.3 -0.6
v 3.1 2.3 -0.7
v 3.1 2.4 -0.6
v 3.1 2.4 -0.7
v 3.2 2.3 -0.5
v 3.2 2.3 -0.6
v 3.2 2.4 -0.5
v 3.2 2.4 -0.6
v 3.3 2.3 -0.4
v 3.3 2.3 -0.5
v 3.3 2.4 -0.4
v 3.3 2.4 -0.5
v 3.9 2.4 -6.1
v 3.9 2.4 -6.3
v 3.9 2.5 -6.1
v 3.9 2.5 -6.3
v 4 2.5 -6.2
v 4 2.5 -6.3
v 4 2.6 -6.2
v 4 2.6 -6.3
v 6.1 2 -6.3
v 6.1 2 -6.4
v 6.1 2.1 -6.3
v 6.1 2.1 -6.4
v 6.6 2 -6.4
v 6.6 2 -6.6
v 6.6 2.1 -0.1
v 6.6 2.1 -6.4
v 6.6 2.3 -0.1
v 6.6 2.3 -6.6
v 0.1 2.4 -4.4
v 0.1 2.4 -6.3
v 0.1 2.5 -4.4
v 0.1 2.5 -6.3
v 0.3 2.3 -5
v 0.3 2.3 -5.2
v 0.3 2.3 -6.3
v 0.3 2.4 -5
v 0.3 2.4 -6.3
v 0.6 2.1 -0.1
v 0.6 2.1 -2.6
v 0.6 2.3 -0.1
v 0.6 2.3 -2.6
v 2.2 2.4 -2.6
v 2.2 2.4 -4.4
v 2.2 2.5 -2.6
v 2.2 2.5 -4.4
v 2.6 2.4 -6.2
v 2.6 2.4 -6.3
v 2.6 2.5 -6.2
v 2.6 2.5 -6.3
v 6.1 2.1 -2.9
v 6.1 2.1 -6.3
v 6.1 2.2 -0.4
v 6.1 2.2 -2.9
v 6.1 2.3 -2.9
v 6.1 2.3 -6
v 6.1 2.4 -0.4
v 6.1 2.4 -6
v 6.1 2.4 -6.1
v 6.1 2.5 -6.1
v 6.1 2.5 -6.2
v 6.1 2.6 -6.2
v 6.1 2.6 -6.3
v 6.2 2.1 -0.3
v 6.2 2.1 -2.9
v 6.2 2.2 -0.3
v 6.2 2.2 -2.9
v 6.7 2 0
v 6.7 2 -6.6
v 6.7 2.3 0
v 6.7 2.3 -6.6
v 0.5 2 0
v 0.5 2.3 0
v 6.7 2 0
v 6.7 2.3 0
v 2.1 2.1 -0.3
v 2.1 2.2 -0.3
v 6.2 2.1 -0.3
v 6.2 2.2 -0.3
v 2.2 2.2 -0.4
v 2.2 2.3 -0.4
v 3.3 2.2 -0.4
v 3.3 2.3 -0.4
v 3.3 2.4 -0.4
v 6.1 2.2 -0.4
v 6.1 2.4 -0.4
v 3.2 2.3 -0.5
v 3.2 2.4 -0.5
v 3.3 2.3 -0.5
v 3.3 2.4 -0.5
v 3.1 2.3 -0.6
v 3.1 2.4 -0.6
v 3.2 2.3 -0.6
v 3.2 2.4 -0.6
v 2.9 2.3 -0.7
v 2.9 2.4 -0.7
v 3.1 2.3 -0.7
v 3.1 2.4 -0.7
v 2.8 2.3 -0.8
v 2.8 2.4 -0.8
v 2.9 2.3 -0.8
v 2.9 2.4 -0.8
v 2.7 2.3 -1
v 2.7 2.4 -1
v 2.8 2.3 -1
v 2.8 2.4 -1
v 2.6 2.3 -1.1
v 2.6 2.4 -1.1
v 2.7 2.3 -1.1
v 2.7 2.4 -1.1
v 2.5 2.3 -1.3
v 2.5 2.4 -1.3
v 2.6 2.3 -1.3
v 2.6 2.4 -1.3
v 2.4 2.3 -1.4
v 2.4 2.4 -1.4
v 2.5 2.3 -1.4
v 2.5 2.4 -1.4
v 0.9 2.1 -2.4
v 0.9 2.2 -2.4
v 2.1 2.1 -2.4
v 2.1 2.2 -2.4
v 2.1 2.3 -2.4
v 2.2 2.2 -2.4
v 2.2 2.3 -2.4
v 2.2 2.4 -2.4
v 2.4 2.3 -2.4
v 2.4 2.4 -2.4
v 2.1 2.3 -2.5
v 2.1 2.4 -2.5
v 2.2 2.3 -2.5
v 2.2 2.4 -2.5
v 0.6 2.1 -2.6
v 0.6 2.3 -2.6
v 0.9 2.1 -2.6
v 0.9 2.2 -2.6
v 1.8 2.3 -2.6
v 1.8 2.4 -2.6
v 1.9 2.4 -2.6
v 1.9 2.5 -2.6
v 2.1 2.2 -2.6
v 2.1 2.4 -2.6
v 2.2 2.4 -2.6
v 2.2 2.5 -2.6
v 0 2 -4.3
v 0 2.5 -4.3
v 2.1 2 -4.3
v 2.1 2.5 -4.3
v 3.9 2.4 -6.1
v 3.9 2.5 -6.1
v 6.1 2.4 -6.1
v 6.1 2.5 -6.1
v 2.2 2.3 -6.2
v 2.2 2.4 -6.2
v 2.3 2.4 -6.2
v 2.3 2.5 -6.2
v 2.4 2.3 -6.2
v 2.4 2.4 -6.2
v 2.4 2.5 -6.2
v 2.6 2.4 -6.2
v 2.6 2.5 -6.2
v 4 2.5 -6.2
v 4 2.6 -6.2
v 6.1 2.5 -6.2
v 6.1 2.6 -6.2
v 0.6 2.1 -0.1
v 0.6 2.3 -0.1
v 6.6 2.1 -0.1
v 6.6 2.3 -0.1
v 0.5 2 -2.7
v 0.5 2.3 -2.7
v 1.8 2.3 -2.7
v 1.8 2.4 -2.7
v 1.9 2.4 -2.7
v 1.9 2.5 -2.7
v 2.1 2 -2.7
v 2.1 2.5 -2.7
v 6.1 2.1 -2.9
v 6.1 2.2 -2.9
v 6.2 2.1 -2.9
v 6.2 2.2 -2.9
v 0.1 2.4 -4.4
v 0.1 2.5 -4.4
v 2.2 2.4 -4.4
v 2.2 2.5 -4.4
v 0.3 2.3 -5
v 0.3 2.4 -5
v 2.4 2.3 -5
v 2.4 2.4 -5
v 0 2 -6.3
v 0 2.5 -6.3
v 0.1 2.4 -6.3
v 0.1 2.5 -6.3
v 0.3 2 -6.3
v 0.3 2.3 -6.3
v 0.3 2.4 -6.3
v 2.2 2.3 -6.3
v 2.2 2.4 -6.3
v 2.3 2.4 -6.3
v 2.3 2.5 -6.3
v 2.4 2.3 -6.3
v 2.4 2.4 -6.3
v 2.4 2.5 -6.3
v 2.6 2.4 -6.3
v 2.6 2.5 -6.3
v 3.7 2.3 -6.3
v 3.7 2.4 -6.3
v 3.9 2 -6.3
v 3.9 2.3 -6.3
v 3.9 2.4 -6.3
v 3.9 2.5 -6.3
v 4 2.5 -6.3
v 4 2.6 -6.3
v 6.1 2 -6.3
v 6.1 2.1 -6.3
v 6.1 2.6 -6.3
v 6.1 2 -6.4
v 6.1 2.1 -6.4
v 6.6 2 -6.4
v 6.6 2.1 -6.4
v 6.6 2 -6.6
v 6.6 2.3 -6.6
v 6.7 2 -6.6
v 6.7 2.3 -6.6
v 0.5 2 0
v 6.7 2 0
v 3.3 2 -0.4
v 6.1 2 -0.4
v 3.2 2 -0.5
v 3.3 2 -0.5
v 3.1 2 -0.6
v 3.2 2 -0.6
v 2.9 2 -0.7
v 3.1 2 -0.7
v 2.8 2 -0.8
v 2.9 2 -0.8
v 2.7 2 -1
v 2.8 2 -1
v 2.6 2 -1.1
v 2.7 2 -1.1
v 2.5 2 -1.3
v 2.6 2 -1.3
v 2.4 2 -1.4
v 2.5 2 -1.4
v 0.5 2 -2.7
v 2.1 2 -2.7
v 3.9 2 -2.9
v 6.1 2 -2.9
v 0 2 -4.3
v 2.1 2 -4.3
v 0.3 2 -5.3
v 2.4 2 -5.3
v 0 2 -6.3
v 0.3 2 -6.3
v 3.9 2 -6.3
v 6.1 2 -6.3
v 6.1 2 -6.4
v 6.6 2 -6.4
v 6.6 2 -6.6
v 6.7 2 -6.6
v 0.6 2.1 -0.1
v 6.6 2.1 -0.1
v 2.1 2.1 -0.3
v 6.2 2.1 -0.3
v 0.9 2.1 -2.4
v 2.1 2.1 -2.4
v 0.6 2.1 -2.6
v 0.9 2.1 -2.6
v 6.1 2.1 -2.9
v 6.2 2.1 -2.9
v 6.1 2.1 -6.3
v 6.1 2.1 -6.4
v 6.6 2.1 -6.4
v 2.1 2.2 -0.3
v 6.2 2.2 -0.3
v 2.2 2.2 -0.4
v 3.3 2.2 -0.4
v 6.1 2.2 -0.4
v 0.9 2.2 -2.4
v 2.1 2.2 -2.4
v 2.2 2.2 -2.4
v 0.9 2.2 -2.6
v 2.1 2.2 -2.6
v 6.1 2.2 -2.9
v 6.2 2.2 -2.9
v 0.5 2.3 0
v 6.7 2.3 0
v 0.6 2.3 -0.1
v 6.6 2.3 -0.1
v 2.2 2.3 -0.4
v 3.3 2.3 -0.4
v 3.2 2.3 -0.5
v 3.3 2.3 -0.5
v 3.1 2.3 -0.6
v 3.2 2.3 -0.6
v 2.9 2.3 -0.7
v 3.1 2.3 -0.7
v 2.8 2.3 -0.8
v 2.9 2.3 -0.8
v 2.7 2.3 -1
v 2.8 2.3 -1
v 2.6 2.3 -1.1
v 2.7 2.3 -1.1
v 2.5 2.3 -1.3
v 2.6 2.3 -1.3
v 2.4 2.3 -1.4
v 2.5 2.3 -1.4
v 2.4 2.3 -2.3
v 2.1 2.3 -2.4
v 2.2 2.3 -2.4
v 2.4 2.3 -2.4
v 2.1 2.3 -2.5
v 2.2 2.3 -2.5
v 0.6 2.3 -2.6
v 1.8 2.3 -2.6
v 0.5 2.3 -2.7
v 1.8 2.3 -2.7
v 0.3 2.3 -5
v 2.4 2.3 -5
v 0.3 2.3 -5.2
v 2.4 2.3 -5.2
v 2.2 2.3 -6.2
v 2.4 2.3 -6.2
v 0.3 2.3 -6.3
v 2.2 2.3 -6.3
v 6.6 2.3 -6.6
v 6.7 2.3 -6.6
v 3.3 2.4 -0.4
v 6.1 2.4 -0.4
v 3.2 2.4 -0.5
v 3.3 2.4 -0.5
v 3.1 2.4 -0.6
v 3.2 2.4 -0.6
v 2.9 2.4 -0.7
v 3.1 2.4 -0.7
v 2.8 2.4 -0.8
v 2.9 2.4 -0.8
v 2.7 2.4 -1
v 2.8 2.4 -1
v 2.6 2.4 -1.1
v 2.7 2.4 -1.1
v 2.5 2.4 -1.3
v 2.6 2.4 -1.3
v 2.4 2.4 -1.4
v 2.5 2.4 -1.4
v 2.4 2.4 -2.3
v 2.6 2.4 -2.3
v 2.2 2.4 -2.4
v 2.4 2.4 -2.4
v 2.1 2.4 -2.5
v 2.2 2.4 -2.5
v 1.8 2.4 -2.6
v 1.9 2.4 -2.6
v 2.1 2.4 -2.6
v 2.2 2.4 -2.6
v 1.8 2.4 -2.7
v 1.9 2.4 -2.7
v 3.7 2.4 -2.9
v 3.9 2.4 -2.9
v 0.1 2.4 -4.4
v 2.2 2.4 -4.4
v 0.3 2.4 -5
v 2.4 2.4 -5
v 2.4 2.4 -5.2
v 2.6 2.4 -5.2
v 3.9 2.4 -6
v 6.1 2.4 -6
v 3.9 2.4 -6.1
v 6.1 2.4 -6.1
v 2.2 2.4 -6.2
v 2.3 2.4 -6.2
v 2.4 2.4 -6.2
v 2.6 2.4 -6.2
v 0.1 2.4 -6.3
v 0.3 2.4 -6.3
v 2.2 2.4 -6.3
v 2.3 2.4 -6.3
v 2.6 2.4 -6.3
v 3.7 2.4 -6.3
v 3.9 2.4 -6.3
v 1.9 2.5 -2.6
v 2.2 2.5 -2.6
v 1.9 2.5 -2.7
v 2.1 2.5 -2.7
v 0 2.5 -4.3
v 2.1 2.5 -4.3
v 0.1 2.5 -4.4
v 2.2 2.5 -4.4
v 3.9 2.5 -6.1
v 6.1 2.5 -6.1
v 2.3 2.5 -6.2
v 2.4 2.5 -6.2
v 2.6 2.5 -6.2
v 4 2.5 -6.2
v 6.1 2.5 -6.2
v 0 2.5 -6.3
v 0.1 2.5 -6.3
v 2.3 2.5 -6.3
v 2.4 2.5 -6.3
v 2.6 2.5 -6.3
v 3.9 2.5 -6.3
v 4 2.5 -6.3
v 4 2.6 -6.2
v 6.1 2.6 -6.2
v 4 2.6 -6.3
v 6.1 2.6 -6.3

# faces
f 3/1/1 2/1/1 1/1/1
f 4/1/1 2/1/1 3/1/1
f 7/1/1 6/1/1 5/1/1
f 8/1/1 6/1/1 7/1/1
f 11/1/1 10/1/1 9/1/1
f 12/1/1 10/1/1 11/1/1
f 15/1/1 14/1/1 13/1/1
f 16/1/1 14/1/1 15/1/1
f 19/1/1 18/1/1 17/1/1
f 20/1/1 18/1/1 19/1/1
f 25/1/1 24/1/1 23/1/1
f 26/1/1 24/1/1 25/1/1
f 28/1/1 27/1/1 26/1/1
f 29/1/1 27/1/1 28/1/1
f 30/1/1 27/1/1 29/1/1
f 31/1/1 27/1/1 30/1/1
f 32/1/1 22/1/1 21/1/1
f 33/1/1 22/1/1 32/1/1
f 36/1/1 35/1/1 34/1/1
f 37/1/1 35/1/1 36/1/1
f 41/1/1 38/1/1 37/1/1
f 42/1/1 38/1/1 41/1/1
f 43/1/1 40/1/1 39/1/1
f 44/1/1 40/1/1 43/1/1
f 47/1/1 46/1/1 45/1/1
f 48/1/1 46/1/1 47/1/1
f 55/3/1 50/3/1 49/3/1
f 56/2/1 51/2/1 50/2/1
f 56/3/1 50/3/1 55/3/1
f 57/2/1 51/2/1 56/2/1
f 58/2/1 53/2/1 52/2/1
f 59/3/1 54/3/1 53/3/1
f 59/2/1 53/2/1 58/2/1
f 60/3/1 54/3/1 59/3/1
f 63/3/1 62/3/1 61/3/1
f 64/3/1 62/3/1 63/3/1
f 67/3/1 66/3/1 65/3/1
f 68/3/1 66/3/1 67/3/1
f 71/3/1 70/3/1 69/3/1
f 72/3/1 70/3/1 71/3/1
f 75/3/1 74/3/1 73/3/1
f 76/3/1 74/3/1 75/3/1
f 79/3/1 78/3/1 77/3/1
f 80/3/1 78/3/1 79/3/1
f 83/3/1 82/3/1 81/3/1
f 84/3/1 82/3/1 83/3/1
f 87/3/1 86/3/1 85/3/1
f 88/3/1 86/3/1 87/3/1
f 91/3/1 90/3/1 89/3/1
f 92/3/1 90/3/1 91/3/1
f 95/1/1 94/1/1 93/1/1
f 96/1/1 94/1/1 95/1/1
f 99/1/1 98/1/1 97/1/1
f 100/1/1 98/1/1 99/1/1
f 103/1/1 102/1/1 101/1/1
f 104/1/1 102/1/1 103/1/1
f 108/1/1 106/1/1 105/1/1
f 109/1/1 108/1/1 107/1/1
f 110/1/1 106/1/1 108/1/1
f 110/1/1 108/1/1 109/1/1
f 111/1/2 112/1/2 113/1/2
f 113/1/2 112/1/2 114/1/2
f 115/1/2 116/1/2 118/1/2
f 116/1/2 117/1/2 118/1/2
f 118/1/2 117/1/2 119/1/2
f 120/1/2 121/1/2 122/1/2
f 122/1/2 121/1/2 123/1/2
f 124/1/2 125/1/2 126/1/2
f 126/1/2 125/1/2 127/1/2
f 128/2/2 129/2/2 130/2/2
f 130/2/2 129/2/2 131/2/2
f 132/1/2 133/1/2 135/1/2
f 135/1/2 133/1/2 136/1/2
f 134/3/2 135/3/2 136/3/2
f 136/1/2 133/1/2 137/1/2
f 134/3/2 136/3/2 138/3/2
f 136/3/2 137/3/2 138/3/2
f 137/1/2 133/1/2 139/1/2
f 138/3/2 137/3/2 139/3/2
f 139/1/2 133/1/2 140/1/2
f 140/1/2 133/1/2 141/1/2
f 141/1/2 133/1/2 142/1/2
f 142/1/2 133/1/2 143/1/2
f 143/1/2 133/1/2 144/1/2
f 145/1/2 146/1/2 147/1/2
f 147/1/2 146/1/2 148/1/2
f 149/1/2 150/1/2 151/1/2
f 151/1/2 150/1/2 152/1/2
f 155/1/3 154/1/3 153/1/3
f 156/1/3 154/1/3 155/1/3
f 159/1/3 158/1/3 157/1/3
f 160/1/3 158/1/3 159/1/3
f 163/1/3 162/1/3 161/1/3
f 164/1/3 162/1/3 163/1/3
f 166/3/3 164/3/3 163/3/3
f 166/3/3 165/3/3 164/3/3
f 167/3/3 165/3/3 166/3/3
f 170/3/3 169/3/3 168/3/3
f 171/3/3 169/3/3 170/3/3
f 174/3/3 173/3/3 172/3/3
f 175/3/3 173/3/3 174/3/3
f 178/3/3 177/3/3 176/3/3
f 179/3/3 177/3/3 178/3/3
f 182/3/3 181/3/3 180/3/3
f 183/3/3 181/3/3 182/3/3
f 186/3/3 185/3/3 184/3/3
f 187/3/3 185/3/3 186/3/3
f 190/3/3 189/3/3 188/3/3
f 191/3/3 189/3/3 190/3/3
f 194/3/3 193/3/3 192/3/3
f 195/3/3 193/3/3 194/3/3
f 198/3/3 197/3/3 196/3/3
f 199/3/3 197/3/3 198/3/3
f 202/1/3 201/1/3 200/1/3
f 203/1/3 201/1/3 202/1/3
f 205/1/3 204/1/3 203/1/3
f 206/1/3 204/1/3 205/1/3
f 208/1/3 207/1/3 206/1/3
f 209/1/3 207/1/3 208/1/3
f 212/1/3 211/1/3 210/1/3
f 213/1/3 211/1/3 212/1/3
f 216/1/3 215/1/3 214/1/3
f 217/1/3 215/1/3 216/1/3
f 218/1/3 215/1/3 217/1/3
f 220/1/3 219/1/3 218/1/3
f 222/1/3 218/1/3 217/1/3
f 222/1/3 221/1/3 220/1/3
f 222/1/3 220/1/3 218/1/3
f 223/1/3 221/1/3 222/1/3
f 224/1/3 221/1/3 223/1/3
f 225/1/3 221/1/3 224/1/3
f 228/1/3 227/1/3 226/1/3
f 229/1/3 227/1/3 228/1/3
f 232/1/3 231/1/3 230/1/3
f 233/1/3 231/1/3 232/1/3
f 236/1/3 235/1/3 234/1/3
f 238/1/3 236/1/3 234/1/3
f 238/1/3 237/1/3 236/1/3
f 239/1/3 237/1/3 238/1/3
f 240/1/3 237/1/3 239/1/3
f 241/2/3 240/2/3 239/2/3
f 242/2/3 240/2/3 241/2/3
f 245/1/3 244/1/3 243/1/3
f 246/1/3 244/1/3 245/1/3
f 247/1/4 248/1/4 249/1/4
f 249/1/4 248/1/4 250/1/4
f 251/1/4 252/1/4 253/1/4
f 253/1/4 254/1/4 255/1/4
f 251/1/4 253/1/4 257/1/4
f 255/1/4 256/1/4 257/1/4
f 253/1/4 255/1/4 257/1/4
f 257/1/4 256/1/4 258/1/4
f 259/1/4 260/1/4 261/1/4
f 261/1/4 260/1/4 262/1/4
f 263/1/4 264/1/4 265/1/4
f 265/1/4 264/1/4 266/1/4
f 267/1/4 268/1/4 269/1/4
f 269/1/4 268/1/4 270/1/4
f 271/1/4 272/1/4 273/1/4
f 273/1/4 272/1/4 274/1/4
f 271/1/4 273/1/4 275/1/4
f 275/1/4 273/1/4 276/1/4
f 276/1/4 273/1/4 277/1/4
f 275/3/4 276/3/4 278/3/4
f 278/1/4 279/1/4 280/1/4
f 278/1/4 280/1/4 282/1/4
f 280/1/4 281/1/4 282/1/4
f 275/3/4 278/3/4 282/3/4
f 282/1/4 281/1/4 283/1/4
f 283/1/4 281/1/4 284/1/4
f 282/3/4 283/3/4 285/3/4
f 283/2/4 284/2/4 285/2/4
f 285/2/4 284/2/4 286/2/4
f 275/3/4 282/3/4 287/3/4
f 282/3/4 285/3/4 287/3/4
f 287/3/4 285/3/4 288/3/4
f 275/3/4 287/3/4 289/3/4
f 287/2/4 288/2/4 290/2/4
f 289/3/4 287/3/4 290/3/4
f 290/2/4 288/2/4 291/2/4
f 290/1/4 291/1/4 293/1/4
f 291/1/4 292/1/4 293/1/4
f 289/1/4 290/1/4 293/1/4
f 289/1/4 293/1/4 295/1/4
f 293/1/4 294/1/4 295/1/4
f 295/1/4 294/1/4 296/1/4
f 296/1/4 294/1/4 297/1/4
f 298/1/4 299/1/4 300/1/4
f 300/1/4 299/1/4 301/1/4
f 302/1/4 303/1/4 304/1/4
f 304/1/4 303/1/4 305/1/4
f 308/1/5 307/1/5 306/1/5
f 309/1/5 307/1/5 308/1/5
f 310/1/5 308/1/5 306/1/5
f 311/3/5 309/3/5 308/3/5
f 311/1/5 308/1/5 310/1/5
f 312/1/5 310/1/5 306/1/5
f 313/3/5 311/3/5 310/3/5
f 313/1/5 310/1/5 312/1/5
f 314/1/5 312/1/5 306/1/5
f 315/3/5 313/3/5 312/3/5
f 315/1/5 312/1/5 314/1/5
f 316/1/5 314/1/5 306/1/5
f 317/3/5 315/3/5 314/3/5
f 317/1/5 314/1/5 316/1/5
f 318/1/5 316/1/5 306/1/5
f 319/3/5 317/3/5 316/3/5
f 319/1/5 316/1/5 318/1/5
f 320/1/5 318/1/5 306/1/5
f 321/3/5 319/3/5 318/3/5
f 321/1/5 318/1/5 320/1/5
f 322/1/5 320/1/5 306/1/5
f 323/3/5 321/3/5 320/3/5
f 323/1/5 320/1/5 322/1/5
f 324/1/5 322/1/5 306/1/5
f 325/3/5 323/3/5 322/3/5
f 325/1/5 322/1/5 324/1/5
f 326/1/5 324/1/5 306/1/5
f 327/1/5 324/1/5 326/1/5
f 328/3/5 309/3/5 311/3/5
f 328/3/5 311/3/5 313/3/5
f 328/3/5 313/3/5 315/3/5
f 328/3/5 325/3/5 324/3/5
f 328/3/5 323/3/5 325/3/5
f 328/3/5 321/3/5 323/3/5
f 328/3/5 319/3/5 321/3/5
f 328/3/5 317/3/5 319/3/5
f 328/3/5 315/3/5 317/3/5
f 329/1/5 307/1/5 309/1/5
f 329/3/5 309/3/5 328/3/5
f 331/1/5 324/1/5 327/1/5
f 332/1/5 331/1/5 330/1/5
f 333/3/5 328/3/5 324/3/5
f 333/1/5 331/1/5 332/1/5
f 333/1/5 324/1/5 331/1/5
f 334/1/5 332/1/5 330/1/5
f 335/3/5 333/3/5 332/3/5
f 335/1/5 332/1/5 334/1/5
f 336/3/5 328/3/5 333/3/5
f 336/3/5 333/3/5 335/3/5
f 336/1/5 329/1/5 328/1/5
f 337/1/5 307/1/5 329/1/5
f 337/1/5 329/1/5 336/1/5
f 338/1/5 307/1/5 337/1/5
f 339/1/5 307/1/5 338/1/5
f 340/1/5 307/1/5 339/1/5
f 341/1/5 307/1/5 340/1/5
f 342/1/6 343/1/6 344/1/6
f 344/1/6 343/1/6 345/1/6
f 342/1/6 344/1/6 346/1/6
f 346/1/6 344/1/6 347/1/6
f 342/1/6 346/1/6 348/1/6
f 348/1/6 346/1/6 349/1/6
f 345/1/6 343/1/6 351/1/6
f 350/1/6 351/1/6 352/1/6
f 352/1/6 351/1/6 353/1/6
f 351/1/6 343/1/6 354/1/6
f 353/1/6 351/1/6 354/1/6
f 355/1/6 356/1/6 357/1/6
f 357/1/6 356/1/6 358/1/6
f 358/1/6 356/1/6 359/1/6
f 355/1/6 357/1/6 361/1/6
f 361/1/6 357/1/6 362/1/6
f 360/1/6 361/1/6 363/1/6
f 363/1/6 361/1/6 364/1/6
f 359/1/6 356/1/6 365/1/6
f 365/1/6 356/1/6 366/1/6
f 367/1/6 368/1/6 369/1/6
f 369/1/6 368/1/6 370/1/6
f 371/1/6 372/1/6 373/1/6
f 373/1/6 372/1/6 374/1/6
f 371/1/6 373/1/6 375/1/6
f 375/1/6 373/1/6 376/1/6
f 371/1/6 375/1/6 377/1/6
f 377/1/6 375/1/6 378/1/6
f 371/1/6 377/1/6 379/1/6
f 379/1/6 377/1/6 380/1/6
f 371/1/6 379/1/6 381/1/6
f 381/1/6 379/1/6 382/1/6
f 371/1/6 381/1/6 383/1/6
f 383/1/6 381/1/6 384/1/6
f 371/1/6 383/1/6 385/1/6
f 385/1/6 383/1/6 386/1/6
f 371/1/6 385/1/6 387/1/6
f 387/1/6 385/1/6 388/1/6
f 371/1/6 387/1/6 389/1/6
f 371/1/6 389/1/6 391/1/6
f 391/1/6 389/1/6 392/1/6
f 390/1/6 391/1/6 393/1/6
f 393/1/6 391/1/6 394/1/6
f 367/1/6 369/1/6 395/1/6
f 367/1/6 395/1/6 397/1/6
f 395/1/6 396/1/6 397/1/6
f 397/1/6 396/1/6 398/1/6
f 399/1/6 400/1/6 401/1/6
f 401/1/6 400/1/6 402/1/6
f 401/3/6 402/3/6 403/3/6
f 403/3/6 402/3/6 404/3/6
f 401/3/6 403/3/6 405/3/6
f 405/3/6 403/3/6 406/3/6
f 370/1/6 368/1/6 407/1/6
f 407/1/6 368/1/6 408/1/6
f 409/3/6 410/3/6 412/3/6
f 411/3/6 412/3/6 414/3/6
f 413/3/6 414/3/6 416/3/6
f 415/3/6 416/3/6 418/3/6
f 417/3/6 418/3/6 420/3/6
f 419/3/6 420/3/6 422/3/6
f 421/3/6 422/3/6 424/3/6
f 423/3/6 424/3/6 426/3/6
f 425/3/6 426/3/6 427/3/6
f 424/3/6 422/3/6 428/3/6
f 427/3/6 426/3/6 428/3/6
f 426/3/6 424/3/6 428/3/6
f 427/2/6 428/2/6 430/2/6
f 429/1/6 430/1/6 432/1/6
f 431/1/6 432/1/6 435/1/6
f 432/1/6 430/1/6 436/1/6
f 435/1/6 432/1/6 436/1/6
f 433/1/6 434/1/6 437/1/6
f 437/1/6 434/1/6 438/1/6
f 412/3/6 410/3/6 439/3/6
f 414/3/6 412/3/6 439/3/6
f 416/3/6 414/3/6 439/3/6
f 418/3/6 416/3/6 439/3/6
f 420/3/6 418/3/6 439/3/6
f 422/3/6 420/3/6 439/3/6
f 428/3/6 422/3/6 439/3/6
f 439/3/6 410/3/6 440/3/6
f 436/1/6 430/1/6 442/1/6
f 441/1/6 442/1/6 443/1/6
f 430/2/6 428/2/6 444/2/6
f 443/1/6 442/1/6 444/1/6
f 442/1/6 430/1/6 444/1/6
f 444/2/6 428/2/6 445/2/6
f 428/3/6 439/3/6 446/3/6
f 445/2/6 428/2/6 446/2/6
f 440/3/6 410/3/6 447/3/6
f 439/2/6 440/2/6 447/2/6
f 447/3/6 410/3/6 448/3/6
f 439/2/6 447/2/6 449/2/6
f 447/1/6 448/1/6 449/1/6
f 449/1/6 448/1/6 450/1/6
f 445/3/6 446/3/6 453/3/6
f 446/3/6 439/3/6 454/3/6
f 453/3/6 446/3/6 454/3/6
f 441/1/6 443/1/6 455/1/6
f 455/1/6 443/1/6 456/1/6
f 451/1/6 452/1/6 457/1/6
f 457/1/6 452/1/6 458/1/6
f 454/3/6 439/3/6 459/3/6
f 439/2/6 449/2/6 460/2/6
f 459/3/6 439/3/6 460/3/6
f 460/2/6 449/2/6 461/2/6
f 462/1/6 463/1/6 464/1/6
f 464/1/6 463/1/6 465/1/6
f 465/1/6 463/1/6 467/1/6
f 466/1/6 467/1/6 468/1/6
f 467/1/6 463/1/6 469/1/6
f 468/1/6 467/1/6 469/1/6
f 470/1/6 471/1/6 475/1/6
f 475/1/6 471/1/6 476/1/6
f 466/1/6 468/1/6 477/1/6
f 477/1/6 468/1/6 478/1/6
f 472/1/6 473/1/6 479/1/6
f 473/2/6 474/2/6 480/2/6
f 479/1/6 473/1/6 480/1/6
f 480/2/6 474/2/6 481/2/6
f 470/1/6 475/1/6 482/1/6
f 482/1/6 475/1/6 483/1/6
f 484/1/6 485/1/6 486/1/6
f 486/1/6 485/1/6 487/1/6
